<?xml version="1.0" encoding="UTF-8"?>
<svg id="Layer_2" data-name="Layer 2" xmlns="http://www.w3.org/2000/svg" viewBox="0 0 1092 488.09">
  <defs>
    <style>
      .cls-1 {
        fill: #fff4ce;
      }
    </style>
  </defs>
  <g id="Layer_1-2" data-name="Layer 1">
    <path class="cls-1" d="M800.89,0h-11.84c-.42,15.71-16.31,28.44-32.18,28.44h-218.07c-14.85,0-26.99-14.03-28.79-28.35h-12.44c-1.8,14.33-13.95,28.35-28.79,28.35h-109.64c-15.33,0-27.71-13.43-28.91-28.35h-12.2c-1.2,14.93-13.65,28.35-28.91,28.35H99.48c-15.33,0-27.71-13.43-28.91-28.35h-12.2c-1.2,14.93-13.64,28.35-28.91,28.35H0v11.69h29.39c16.11,0,29.15,13.01,29.15,29.07v418.89h11.72V69.2c0-16.06,13.04-29.07,29.15-29.07h189.64c16.11,0,29.15,13.01,29.15,29.07v21.52h11.72v-21.52c0-16.06,13.04-29.07,29.15-29.07h109.64c16.11,0,29.15,13.01,29.15,29.07v137.39h11.72V69.2c0-16.06,13.04-29.07,29.15-29.07h218.01c16.11,0,29.15,13.01,29.15,29.07v21.52h11.72v-21.52c0-16.06,13.04-29.07,29.15-29.07h265.22v-11.69h-265.22c-15.75,0-25.52-12.74-25.88-28.44Z"/>
  </g>
</svg>