<?xml version="1.0" encoding="UTF-8"?>
<svg id="Layer_1" xmlns="http://www.w3.org/2000/svg" version="1.1" viewBox="0 0 496 468">
  <!-- Generator: Adobe Illustrator 29.5.1, SVG Export Plug-In . SVG Version: 2.1.0 Build 141)  -->
  <path d="M398.2,350.9c-8.9,3.9-21,7.4-35.7,10.5-14.7,2.8-32.6,4.3-53.2,4.3s-20.2-.4-27.9-1.2c.8-1.1,1.6-2.1,2.3-3.3,4.9-7.9,7.4-16.8,7.4-26.1,0-8.6-2.3-21.5-7.4-29.7,10.4-1.9,22.5-3.9,36.5-5.5,22.5-3.1,40.4-7,53.9-11.8,13.6-4.8,23.3-11.3,29.5-19.5,6.2-8.2,9.3-18.4,9.3-30.9s-3.1-20.4-9.7-28.5c-6.6-8.6-16.3-15.3-29.1-19.9-13.2-5.1-50-7.4-50-7.4,20.9-17.5,36.9-39,52.1-61.3,8.1-11.8,16.2-23.7,24.1-35.6s1.7-2.6,2.5-3.9c1.5-2.3,3-4.3,4.3-5.8h-46.4s-3.4,8.6-3.7,9.4c-8.5,20.8-20.9,40.3-34.1,58.4-8.6,11.8-18.3,23-30.5,31.1-22.2,15-50.4,17-75.1,6.9-12.5-5.1-23.8-13.1-32.5-23.4-15.6-18.4-30.2-41.5-39.9-63.6-1.4-3.2-2.8-6-4.3-9.3s-2.3-5.8-3.3-8.5-.4-1.1-.3-1.1h-47.6c1.7,2.2,2.9,4.2,4.3,6,10,16.1,21.2,31.6,32,47.2,13.6,19.8,27.5,38.9,46.9,53.4-20.2,0-36.9,2.3-50.1,7.4-13.2,5.1-22.9,11.3-29.1,19.9-6.6,8.2-9.7,17.9-9.7,28.5s3.1,22.7,9.3,30.9c6.2,8.2,15.9,14.9,29.5,19.5,15.9,5.5,32.1,8.9,48.8,11.1,13.9,1.9,28.1,3.7,41.8,6-1.5,2.3-2.4,5.3-3.3,7.8-3.5,9-4.6,19.2-3.4,28.8.5,4,1.4,8,2.9,11.7s3.9,7.2,6,10.8c-7.8.8-17.1,1.2-27.9,1.2-20.5,0-38.4-1.6-53.2-4.3-14.7-2.8-26.8-6.3-35.7-10.5-8.9-3.9-16.4-9.9-18.9-12.5v36.7c.1,0,.1,6.7.1,6.7,8.1,2.3,29.7,5,48.3,7,19,2.3,40.8,3.5,65.2,3.5,12.8,0,25.7-.3,38.3-2.9,1.1-.2,2.3-.5,3.4-.7,2.3-.5,4.7-1.1,7-1.7s2.1-.6,3.2-1,3.2-1.2,3.2-1.2c0,0,8.1,2.3,12.4,3.5,12.4,2.8,26.3,3.9,42.7,3.9,24.4,0,46.2-1.2,65.2-3.5,19.1-2.3,40.5-4.7,48.6-6.7v-6.7l-.2-37c-3.1,3.5-9.9,8-18.8,12.4h.4ZM247.6,350.4c-3.5-4.7-5.5-10.2-5.5-16s1.9-10.5,5.5-14.4c3.5,3.9,5.5,8.6,5.5,14.4s-1.9,11.3-5.5,16ZM234.5,225c0-5.4,0-10.9,0-16.3h27.4s0,1.8,0,5.3v9.1c0,8.6-.1,17.1-.1,25.7v28.8c-5.1,1.2-9.3,2.3-13.6,3.9-4.3-1.2-8.5-2.8-13.6-3.9,0-12.5,0-24.9,0-37.4s0-10.1,0-15.1ZM353.6,211.9c8.1,1.9,12.8,4.9,16.3,8.8,3.5,3.9,5.5,9,5.5,14.4s-2.7,13.7-8.1,17.9c-5.5,4.7-13.6,8.2-24.4,10.5-10.9,2.3-23.7,4.7-39.2,6.7h-3.9v-61.8h19.4c14,0,25.2,1.2,33.4,3.1l1.1.3ZM153.7,263.7c-10.9-2.3-19-5.8-24.4-10.5-5.5-4.7-8.1-10.5-8.1-17.9s1.9-10.5,5.5-14.4c3.6-3.9,9.3-7,17.5-9,8.2-2,19.4-3.1,33.4-3.1h19.4v61.6h-3.9c-15.5-1.9-28.3-3.8-39.2-6.5h0Z"/>
</svg>