<svg width="667" height="667" viewBox="0 0 667 667" fill="none" xmlns="http://www.w3.org/2000/svg">
<path d="M667 452.374H475.198C467.703 452.374 461.634 446.307 461.634 438.814V395.089C461.634 387.597 467.703 381.53 475.198 381.53H492.51V376.079H475.198C467.703 376.079 461.634 370.012 461.634 362.519V311.526C461.634 304.033 467.703 297.967 475.198 297.967H667V292.515H475.198C467.703 292.515 461.634 286.448 461.634 278.956V227.934C461.634 220.442 467.703 214.375 475.198 214.375H481.603V208.923H475.198C467.703 208.923 461.634 202.857 461.634 195.364V0H456.18V195.364C456.18 202.857 450.111 208.923 442.616 208.923H398.874C391.379 208.923 385.31 202.857 385.31 195.364V174.424H379.856V195.364C379.856 202.857 373.787 208.923 366.292 208.923H315.279C307.784 208.923 301.715 202.857 301.715 195.364V0H296.261V195.364C296.261 202.857 290.192 208.923 282.697 208.923H231.656C224.161 208.923 218.092 202.857 218.092 195.364V185.327H212.638V195.364C212.638 202.857 206.569 208.923 199.074 208.923H0V214.375H199.074C206.569 214.375 212.638 220.442 212.638 227.934V278.928C212.638 286.42 206.569 292.487 199.074 292.487H185.397V297.939H199.074C206.569 297.939 212.638 304.005 212.638 311.498V362.492C212.638 369.984 206.569 376.051 199.074 376.051H10.9074V381.502H199.074C206.569 381.502 212.638 387.569 212.638 395.061V438.786C212.638 446.279 206.569 452.346 199.074 452.346H185.397V457.797H199.074C206.569 457.797 212.638 463.864 212.638 471.356V666.72H218.092V471.356C218.092 463.864 224.161 457.797 231.656 457.797H282.669C290.164 457.797 296.233 463.864 296.233 471.356V481.393H301.687V471.356C301.687 463.864 307.756 457.797 315.251 457.797H366.264C373.759 457.797 379.828 463.864 379.828 471.356V667H385.282V471.356C385.282 463.864 391.351 457.797 398.846 457.797H442.588C450.083 457.797 456.152 463.864 456.152 471.356V481.393H461.606V471.356C461.606 463.864 467.675 457.797 475.17 457.797H666.972V452.374H667ZM442.588 376.051H398.846C391.351 376.051 385.282 369.984 385.282 362.492V311.498C385.282 304.005 391.351 297.939 398.846 297.939H442.588C450.083 297.939 456.152 304.005 456.152 311.498V362.492C456.18 369.984 450.083 376.051 442.588 376.051ZM366.264 376.051H315.251C307.756 376.051 301.687 369.984 301.687 362.492V311.498C301.687 304.005 307.756 297.939 315.251 297.939H366.264C373.759 297.939 379.828 304.005 379.828 311.498V362.492C379.828 369.984 373.759 376.051 366.264 376.051ZM456.18 227.934V278.928C456.18 286.42 450.111 292.487 442.616 292.487H398.874C391.379 292.487 385.31 286.42 385.31 278.928V227.934C385.31 220.442 391.379 214.375 398.874 214.375H442.616C450.083 214.375 456.18 220.442 456.18 227.934ZM379.828 227.934V278.928C379.828 286.42 373.759 292.487 366.264 292.487H315.251C307.756 292.487 301.687 286.42 301.687 278.928V227.934C301.687 220.442 307.756 214.375 315.251 214.375H366.264C373.759 214.375 379.828 220.442 379.828 227.934ZM231.656 214.375H282.669C290.164 214.375 296.233 220.442 296.233 227.934V278.928C296.233 286.42 290.164 292.487 282.669 292.487H231.656C224.161 292.487 218.092 286.42 218.092 278.928V227.934C218.092 220.442 224.161 214.375 231.656 214.375ZM231.656 297.939H282.669C290.164 297.939 296.233 304.005 296.233 311.498V362.492C296.233 369.984 290.164 376.051 282.669 376.051H231.656C224.161 376.051 218.092 369.984 218.092 362.492V311.498C218.092 304.033 224.161 297.939 231.656 297.939ZM218.092 438.786V395.061C218.092 387.569 224.161 381.502 231.656 381.502H282.669C290.164 381.502 296.233 387.569 296.233 395.061V438.786C296.233 446.279 290.164 452.346 282.669 452.346H231.656C224.161 452.374 218.092 446.279 218.092 438.786ZM301.687 438.786V395.061C301.687 387.569 307.756 381.502 315.251 381.502H366.264C373.759 381.502 379.828 387.569 379.828 395.061V438.786C379.828 446.279 373.759 452.346 366.264 452.346H315.251C307.784 452.374 301.687 446.279 301.687 438.786ZM385.282 438.786V395.061C385.282 387.569 391.351 381.502 398.846 381.502H442.588C450.083 381.502 456.152 387.569 456.152 395.061V438.786C456.152 446.279 450.083 452.346 442.588 452.346H398.846C391.379 452.374 385.282 446.279 385.282 438.786Z" fill="black"/>
</svg>
