<svg width="1080" height="1920" viewBox="0 0 1080 1920" fill="none" xmlns="http://www.w3.org/2000/svg">
<path d="M3077 2296.62H1858.61C1811 2296.62 1772.45 2258.09 1772.45 2210.49V1932.74C1772.45 1885.14 1811 1846.6 1858.61 1846.6H1968.58V1811.97H1858.61C1811 1811.97 1772.45 1773.44 1772.45 1725.84V1401.91C1772.45 1354.32 1811 1315.78 1858.61 1315.78H3077V1281.15H1858.61C1811 1281.15 1772.45 1242.61 1772.45 1195.02V870.911C1772.45 823.316 1811 784.779 1858.61 784.779H1899.3V750.148H1858.61C1811 750.148 1772.45 711.61 1772.45 664.016V-577H1737.8V664.016C1737.8 711.61 1699.25 750.148 1651.64 750.148H1373.78C1326.17 750.148 1287.61 711.61 1287.61 664.016V530.999H1252.97V664.016C1252.97 711.61 1214.42 750.148 1166.81 750.148H842.755C795.142 750.148 756.59 711.61 756.59 664.016V-577H721.946V664.016C721.946 711.61 683.394 750.148 635.782 750.148H311.553C263.94 750.148 225.388 711.61 225.388 664.016V600.26H190.745V664.016C190.745 711.61 152.193 750.148 104.58 750.148H-1160V784.779H104.58C152.193 784.779 190.745 823.316 190.745 870.911V1194.84C190.745 1242.43 152.193 1280.97 104.58 1280.97H17.7045V1315.6H104.58C152.193 1315.6 190.745 1354.14 190.745 1401.73V1725.66C190.745 1773.26 152.193 1811.8 104.58 1811.8H-1090.71V1846.43H104.58C152.193 1846.43 190.745 1884.96 190.745 1932.56V2210.31C190.745 2257.91 152.193 2296.45 104.58 2296.45H17.7045V2331.08H104.58C152.193 2331.08 190.745 2369.61 190.745 2417.21V3658.22H225.388V2417.21C225.388 2369.61 263.94 2331.08 311.553 2331.08H635.604C683.217 2331.08 721.769 2369.61 721.769 2417.21V2480.96H756.412V2417.21C756.412 2369.61 794.964 2331.08 842.577 2331.08H1166.63C1214.24 2331.08 1252.79 2369.61 1252.79 2417.21V3660H1287.44V2417.21C1287.44 2369.61 1325.99 2331.08 1373.6 2331.08H1651.46C1699.07 2331.08 1737.63 2369.61 1737.63 2417.21V2480.96H1772.27V2417.21C1772.27 2369.61 1810.82 2331.08 1858.43 2331.08H3076.82V2296.62H3077ZM1651.46 1811.8H1373.6C1325.99 1811.8 1287.44 1773.26 1287.44 1725.66V1401.73C1287.44 1354.14 1325.99 1315.6 1373.6 1315.6H1651.46C1699.07 1315.6 1737.63 1354.14 1737.63 1401.73V1725.66C1737.8 1773.26 1699.07 1811.8 1651.46 1811.8ZM1166.63 1811.8H842.577C794.964 1811.8 756.412 1773.26 756.412 1725.66V1401.73C756.412 1354.14 794.964 1315.6 842.577 1315.6H1166.63C1214.24 1315.6 1252.79 1354.14 1252.79 1401.73V1725.66C1252.79 1773.26 1214.24 1811.8 1166.63 1811.8ZM1737.8 870.911V1194.84C1737.8 1242.43 1699.25 1280.97 1651.64 1280.97H1373.78C1326.17 1280.97 1287.61 1242.43 1287.61 1194.84V870.911C1287.61 823.316 1326.17 784.779 1373.78 784.779H1651.64C1699.07 784.779 1737.8 823.316 1737.8 870.911ZM1252.79 870.911V1194.84C1252.79 1242.43 1214.24 1280.97 1166.63 1280.97H842.577C794.964 1280.97 756.412 1242.43 756.412 1194.84V870.911C756.412 823.316 794.964 784.779 842.577 784.779H1166.63C1214.24 784.779 1252.79 823.316 1252.79 870.911ZM311.553 784.779H635.604C683.217 784.779 721.769 823.316 721.769 870.911V1194.84C721.769 1242.43 683.217 1280.97 635.604 1280.97H311.553C263.94 1280.97 225.388 1242.43 225.388 1194.84V870.911C225.388 823.316 263.94 784.779 311.553 784.779ZM311.553 1315.6H635.604C683.217 1315.6 721.769 1354.14 721.769 1401.73V1725.66C721.769 1773.26 683.217 1811.8 635.604 1811.8H311.553C263.94 1811.8 225.388 1773.26 225.388 1725.66V1401.73C225.388 1354.32 263.94 1315.6 311.553 1315.6ZM225.388 2210.31V1932.56C225.388 1884.96 263.94 1846.43 311.553 1846.43H635.604C683.217 1846.43 721.769 1884.96 721.769 1932.56V2210.31C721.769 2257.91 683.217 2296.45 635.604 2296.45H311.553C263.94 2296.62 225.388 2257.91 225.388 2210.31ZM756.412 2210.31V1932.56C756.412 1884.96 794.964 1846.43 842.577 1846.43H1166.63C1214.24 1846.43 1252.79 1884.96 1252.79 1932.56V2210.31C1252.79 2257.91 1214.24 2296.45 1166.63 2296.45H842.577C795.142 2296.62 756.412 2257.91 756.412 2210.31ZM1287.44 2210.31V1932.56C1287.44 1884.96 1325.99 1846.43 1373.6 1846.43H1651.46C1699.07 1846.43 1737.63 1884.96 1737.63 1932.56V2210.31C1737.63 2257.91 1699.07 2296.45 1651.46 2296.45H1373.6C1326.17 2296.62 1287.44 2257.91 1287.44 2210.31Z" fill="#055A5B"/>
</svg>
