<svg width="1080" height="1920" viewBox="0 0 1080 1920" fill="none" xmlns="http://www.w3.org/2000/svg">
<path d="M2272 1322.87H1462.23C1430.59 1322.87 1404.97 1297.26 1404.97 1265.63V1081.02C1404.97 1049.39 1430.59 1023.78 1462.23 1023.78H1535.32V1000.76H1462.23C1430.59 1000.76 1404.97 975.149 1404.97 943.517V728.227C1404.97 696.595 1430.59 670.982 1462.23 670.982H2272V647.965H1462.23C1430.59 647.965 1404.97 622.353 1404.97 590.72V375.312C1404.97 343.68 1430.59 318.067 1462.23 318.067H1489.27V295.051H1462.23C1430.59 295.051 1404.97 269.438 1404.97 237.805V-587H1381.94V237.805C1381.94 269.438 1356.32 295.051 1324.67 295.051H1140C1108.36 295.051 1082.74 269.438 1082.74 237.805V149.4H1059.71V237.805C1059.71 269.438 1034.09 295.051 1002.44 295.051H787.073C755.429 295.051 729.806 269.438 729.806 237.805V-587H706.781V237.805C706.781 269.438 681.159 295.051 649.515 295.051H434.025C402.381 295.051 376.758 269.438 376.758 237.805V195.432H353.734V237.805C353.734 269.438 328.111 295.051 296.467 295.051H-544V318.067H296.467C328.111 318.067 353.734 343.68 353.734 375.312V590.602C353.734 622.234 328.111 647.848 296.467 647.848H238.727V670.864H296.467C328.111 670.864 353.734 696.476 353.734 728.109V943.399C353.734 975.031 328.111 1000.64 296.467 1000.64H-497.95V1023.66H296.467C328.111 1023.66 353.734 1049.27 353.734 1080.91V1265.51C353.734 1297.14 328.111 1322.75 296.467 1322.75H238.727V1345.77H296.467C328.111 1345.77 353.734 1371.38 353.734 1403.01V2227.82H376.758V1403.01C376.758 1371.38 402.381 1345.77 434.025 1345.77H649.396C681.041 1345.77 706.663 1371.38 706.663 1403.01V1445.39H729.688V1403.01C729.688 1371.38 755.311 1345.77 786.955 1345.77H1002.33C1033.97 1345.77 1059.59 1371.38 1059.59 1403.01V2229H1082.62V1403.01C1082.62 1371.38 1108.24 1345.77 1139.89 1345.77H1324.56C1356.2 1345.77 1381.82 1371.38 1381.82 1403.01V1445.39H1404.85V1403.01C1404.85 1371.38 1430.47 1345.77 1462.12 1345.77H2271.88V1322.87H2272ZM1324.56 1000.64H1139.89C1108.24 1000.64 1082.62 975.031 1082.62 943.399V728.109C1082.62 696.476 1108.24 670.864 1139.89 670.864H1324.56C1356.2 670.864 1381.82 696.476 1381.82 728.109V943.399C1381.94 975.031 1356.2 1000.64 1324.56 1000.64ZM1002.33 1000.64H786.955C755.311 1000.64 729.688 975.031 729.688 943.399V728.109C729.688 696.476 755.311 670.864 786.955 670.864H1002.33C1033.97 670.864 1059.59 696.476 1059.59 728.109V943.399C1059.59 975.031 1033.97 1000.64 1002.33 1000.64ZM1381.94 375.312V590.602C1381.94 622.234 1356.32 647.848 1324.67 647.848H1140C1108.36 647.848 1082.74 622.234 1082.74 590.602V375.312C1082.74 343.68 1108.36 318.067 1140 318.067H1324.67C1356.2 318.067 1381.94 343.68 1381.94 375.312ZM1059.59 375.312V590.602C1059.59 622.234 1033.97 647.848 1002.33 647.848H786.955C755.311 647.848 729.688 622.234 729.688 590.602V375.312C729.688 343.68 755.311 318.067 786.955 318.067H1002.33C1033.97 318.067 1059.59 343.68 1059.59 375.312ZM434.025 318.067H649.396C681.041 318.067 706.663 343.68 706.663 375.312V590.602C706.663 622.234 681.041 647.848 649.396 647.848H434.025C402.381 647.848 376.758 622.234 376.758 590.602V375.312C376.758 343.68 402.381 318.067 434.025 318.067ZM434.025 670.864H649.396C681.041 670.864 706.663 696.476 706.663 728.109V943.399C706.663 975.031 681.041 1000.64 649.396 1000.64H434.025C402.381 1000.64 376.758 975.031 376.758 943.399V728.109C376.758 696.594 402.381 670.864 434.025 670.864ZM376.758 1265.51V1080.91C376.758 1049.27 402.381 1023.66 434.025 1023.66H649.396C681.041 1023.66 706.663 1049.27 706.663 1080.91V1265.51C706.663 1297.14 681.041 1322.75 649.396 1322.75H434.025C402.381 1322.87 376.758 1297.14 376.758 1265.51ZM729.688 1265.51V1080.91C729.688 1049.27 755.311 1023.66 786.955 1023.66H1002.33C1033.97 1023.66 1059.59 1049.27 1059.59 1080.91V1265.51C1059.59 1297.14 1033.97 1322.75 1002.33 1322.75H786.955C755.429 1322.87 729.688 1297.14 729.688 1265.51ZM1082.62 1265.51V1080.91C1082.62 1049.27 1108.24 1023.66 1139.89 1023.66H1324.56C1356.2 1023.66 1381.82 1049.27 1381.82 1080.91V1265.51C1381.82 1297.14 1356.2 1322.75 1324.56 1322.75H1139.89C1108.36 1322.87 1082.62 1297.14 1082.62 1265.51Z" fill="#F8B044"/>
</svg>
