<svg width="1920" height="1080" viewBox="0 0 1920 1080" fill="none" xmlns="http://www.w3.org/2000/svg">
<path d="M2134 946.701H1477.79C1452.15 946.701 1431.38 925.945 1431.38 900.311V750.715C1431.38 725.081 1452.15 704.325 1477.79 704.325H1537.02V685.674H1477.79C1452.15 685.674 1431.38 664.918 1431.38 639.284V464.82C1431.38 439.186 1452.15 418.43 1477.79 418.43H2134V399.778H1477.79C1452.15 399.778 1431.38 379.022 1431.38 353.388V178.828C1431.38 153.194 1452.15 132.439 1477.79 132.439H1499.7V113.787H1477.79C1452.15 113.787 1431.38 93.031 1431.38 67.397V-601H1412.72V67.397C1412.72 93.031 1391.96 113.787 1366.32 113.787H1216.66C1191.02 113.787 1170.26 93.031 1170.26 67.397V-4.24426H1151.6V67.397C1151.6 93.031 1130.83 113.787 1105.19 113.787H930.661C905.017 113.787 884.254 93.031 884.254 67.397V-601H865.595V67.397C865.595 93.031 844.831 113.787 819.188 113.787H644.562C618.918 113.787 598.154 93.031 598.154 67.397V33.059H579.496V67.397C579.496 93.031 558.732 113.787 533.088 113.787H-148V132.439H533.088C558.732 132.439 579.496 153.194 579.496 178.828V353.293C579.496 378.927 558.732 399.683 533.088 399.683H486.298V418.334H533.088C558.732 418.334 579.496 439.09 579.496 464.724V639.188C579.496 664.822 558.732 685.578 533.088 685.578H-110.683V704.23H533.088C558.732 704.23 579.496 724.986 579.496 750.62V900.215C579.496 925.849 558.732 946.605 533.088 946.605H486.298V965.257H533.088C558.732 965.257 579.496 986.013 579.496 1011.65V1680.04H598.154V1011.65C598.154 986.013 618.918 965.257 644.562 965.257H819.092C844.735 965.257 865.499 986.013 865.499 1011.65V1045.98H884.158V1011.65C884.158 986.013 904.922 965.257 930.565 965.257H1105.1C1130.74 965.257 1151.5 986.013 1151.5 1011.65V1681H1170.16V1011.65C1170.16 986.013 1190.93 965.257 1216.57 965.257H1366.22C1391.86 965.257 1412.63 986.013 1412.63 1011.65V1045.98H1431.29V1011.65C1431.29 986.013 1452.05 965.257 1477.69 965.257H2133.9V946.701H2134ZM1366.22 685.578H1216.57C1190.93 685.578 1170.16 664.822 1170.16 639.188V464.724C1170.16 439.09 1190.93 418.334 1216.57 418.334H1366.22C1391.86 418.334 1412.63 439.09 1412.63 464.724V639.188C1412.72 664.822 1391.86 685.578 1366.22 685.578ZM1105.1 685.578H930.565C904.922 685.578 884.158 664.822 884.158 639.188V464.724C884.158 439.09 904.922 418.334 930.565 418.334H1105.1C1130.74 418.334 1151.5 439.09 1151.5 464.724V639.188C1151.5 664.822 1130.74 685.578 1105.1 685.578ZM1412.72 178.828V353.293C1412.72 378.927 1391.96 399.683 1366.32 399.683H1216.66C1191.02 399.683 1170.26 378.927 1170.26 353.293V178.828C1170.26 153.194 1191.02 132.439 1216.66 132.439H1366.32C1391.86 132.439 1412.72 153.194 1412.72 178.828ZM1151.5 178.828V353.293C1151.5 378.927 1130.74 399.683 1105.1 399.683H930.565C904.922 399.683 884.158 378.927 884.158 353.293V178.828C884.158 153.194 904.922 132.439 930.565 132.439H1105.1C1130.74 132.439 1151.5 153.194 1151.5 178.828ZM644.562 132.439H819.092C844.735 132.439 865.499 153.194 865.499 178.828V353.293C865.499 378.927 844.735 399.683 819.092 399.683H644.562C618.918 399.683 598.154 378.927 598.154 353.293V178.828C598.154 153.194 618.918 132.439 644.562 132.439ZM644.562 418.334H819.092C844.735 418.334 865.499 439.09 865.499 464.724V639.188C865.499 664.822 844.735 685.578 819.092 685.578H644.562C618.918 685.578 598.154 664.822 598.154 639.188V464.724C598.154 439.186 618.918 418.334 644.562 418.334ZM598.154 900.215V750.62C598.154 724.986 618.918 704.23 644.562 704.23H819.092C844.735 704.23 865.499 724.986 865.499 750.62V900.215C865.499 925.849 844.735 946.605 819.092 946.605H644.562C618.918 946.701 598.154 925.849 598.154 900.215ZM884.158 900.215V750.62C884.158 724.986 904.922 704.23 930.565 704.23H1105.1C1130.74 704.23 1151.5 724.986 1151.5 750.62V900.215C1151.5 925.849 1130.74 946.605 1105.1 946.605H930.565C905.017 946.701 884.158 925.849 884.158 900.215ZM1170.16 900.215V750.62C1170.16 724.986 1190.93 704.23 1216.57 704.23H1366.22C1391.86 704.23 1412.63 724.986 1412.63 750.62V900.215C1412.63 925.849 1391.86 946.605 1366.22 946.605H1216.57C1191.02 946.701 1170.16 925.849 1170.16 900.215Z" fill="#F8B044"/>
</svg>
