<svg width="1080" height="1350" viewBox="0 0 1080 1350" fill="none" xmlns="http://www.w3.org/2000/svg">
<path d="M2897 1969.27H1795.36C1752.31 1969.27 1717.45 1934.42 1717.45 1891.39V1640.25C1717.45 1597.21 1752.31 1562.37 1795.36 1562.37H1894.79V1531.06H1795.36C1752.31 1531.06 1717.45 1496.21 1717.45 1453.18V1160.29C1717.45 1117.25 1752.31 1082.41 1795.36 1082.41H2897V1051.1H1795.36C1752.31 1051.1 1717.45 1016.25 1717.45 973.218V680.168C1717.45 637.134 1752.31 602.29 1795.36 602.29H1832.15V570.978H1795.36C1752.31 570.978 1717.45 536.133 1717.45 493.099V-629H1686.13V493.099C1686.13 536.133 1651.27 570.978 1608.22 570.978H1356.99C1313.94 570.978 1279.08 536.133 1279.08 493.099V372.828H1247.75V493.099C1247.75 536.133 1212.9 570.978 1169.85 570.978H876.846C833.796 570.978 798.938 536.133 798.938 493.099V-629H767.614V493.099C767.614 536.133 732.756 570.978 689.705 570.978H396.545C353.495 570.978 318.637 536.133 318.637 493.099V435.452H287.313V493.099C287.313 536.133 252.455 570.978 209.405 570.978H-934V602.29H209.405C252.455 602.29 287.313 637.134 287.313 680.168V973.057C287.313 1016.09 252.455 1050.94 209.405 1050.94H130.854V1082.25H209.405C252.455 1082.25 287.313 1117.09 287.313 1160.13V1453.02C287.313 1496.05 252.455 1530.9 209.405 1530.9H-871.352V1562.21H209.405C252.455 1562.21 287.313 1597.05 287.313 1640.09V1891.23C287.313 1934.26 252.455 1969.1 209.405 1969.1H130.854V2000.42H209.405C252.455 2000.42 287.313 2035.26 287.313 2078.3V3200.39H318.637V2078.3C318.637 2035.26 353.495 2000.42 396.545 2000.42H689.545C732.595 2000.42 767.453 2035.26 767.453 2078.3V2135.94H798.777V2078.3C798.777 2035.26 833.635 2000.42 876.685 2000.42H1169.68C1212.74 2000.42 1247.59 2035.26 1247.59 2078.3V3202H1278.92V2078.3C1278.92 2035.26 1313.77 2000.42 1356.83 2000.42H1608.06C1651.11 2000.42 1685.97 2035.26 1685.97 2078.3V2135.94H1717.29V2078.3C1717.29 2035.26 1752.15 2000.42 1795.2 2000.42H2896.84V1969.27H2897ZM1608.06 1530.9H1356.83C1313.77 1530.9 1278.92 1496.05 1278.92 1453.02V1160.13C1278.92 1117.09 1313.77 1082.25 1356.83 1082.25H1608.06C1651.11 1082.25 1685.97 1117.09 1685.97 1160.13V1453.02C1686.13 1496.05 1651.11 1530.9 1608.06 1530.9ZM1169.68 1530.9H876.685C833.635 1530.9 798.777 1496.05 798.777 1453.02V1160.13C798.777 1117.09 833.635 1082.25 876.685 1082.25H1169.68C1212.74 1082.25 1247.59 1117.09 1247.59 1160.13V1453.02C1247.59 1496.05 1212.74 1530.9 1169.68 1530.9ZM1686.13 680.168V973.057C1686.13 1016.09 1651.27 1050.94 1608.22 1050.94H1356.99C1313.94 1050.94 1279.08 1016.09 1279.08 973.057V680.168C1279.08 637.134 1313.94 602.29 1356.99 602.29H1608.22C1651.11 602.29 1686.13 637.134 1686.13 680.168ZM1247.59 680.168V973.057C1247.59 1016.09 1212.74 1050.94 1169.68 1050.94H876.685C833.635 1050.94 798.777 1016.09 798.777 973.057V680.168C798.777 637.134 833.635 602.29 876.685 602.29H1169.68C1212.74 602.29 1247.59 637.134 1247.59 680.168ZM396.545 602.29H689.545C732.595 602.29 767.453 637.134 767.453 680.168V973.057C767.453 1016.09 732.595 1050.94 689.545 1050.94H396.545C353.495 1050.94 318.637 1016.09 318.637 973.057V680.168C318.637 637.134 353.495 602.29 396.545 602.29ZM396.545 1082.25H689.545C732.595 1082.25 767.453 1117.09 767.453 1160.13V1453.02C767.453 1496.05 732.595 1530.9 689.545 1530.9H396.545C353.495 1530.9 318.637 1496.05 318.637 1453.02V1160.13C318.637 1117.25 353.495 1082.25 396.545 1082.25ZM318.637 1891.23V1640.09C318.637 1597.05 353.495 1562.21 396.545 1562.21H689.545C732.595 1562.21 767.453 1597.05 767.453 1640.09V1891.23C767.453 1934.26 732.595 1969.1 689.545 1969.1H396.545C353.495 1969.27 318.637 1934.26 318.637 1891.23ZM798.777 1891.23V1640.09C798.777 1597.05 833.635 1562.21 876.685 1562.21H1169.68C1212.74 1562.21 1247.59 1597.05 1247.59 1640.09V1891.23C1247.59 1934.26 1212.74 1969.1 1169.68 1969.1H876.685C833.796 1969.27 798.777 1934.26 798.777 1891.23ZM1278.92 1891.23V1640.09C1278.92 1597.05 1313.77 1562.21 1356.83 1562.21H1608.06C1651.11 1562.21 1685.97 1597.05 1685.97 1640.09V1891.23C1685.97 1934.26 1651.11 1969.1 1608.06 1969.1H1356.83C1313.94 1969.27 1278.92 1934.26 1278.92 1891.23Z" fill="#055A5B"/>
</svg>
