<svg width="1920" height="1080" viewBox="0 0 1920 1080" fill="none" xmlns="http://www.w3.org/2000/svg">
<path d="M2802 1500.57H1983.03C1951.03 1500.57 1925.11 1474.67 1925.11 1442.68V1255.98C1925.11 1223.99 1951.03 1198.08 1983.03 1198.08H2056.95V1174.81H1983.03C1951.03 1174.81 1925.11 1148.9 1925.11 1116.91V899.173C1925.11 867.181 1951.03 841.277 1983.03 841.277H2802V817.999H1983.03C1951.03 817.999 1925.11 792.095 1925.11 760.103V542.248C1925.11 510.256 1951.03 484.352 1983.03 484.352H2010.38V461.074H1983.03C1951.03 461.074 1925.11 435.17 1925.11 403.178V-431H1901.83V403.178C1901.83 435.17 1875.91 461.074 1843.91 461.074H1657.14C1625.14 461.074 1599.22 435.17 1599.22 403.178V313.768H1575.94V403.178C1575.94 435.17 1550.02 461.074 1518.02 461.074H1300.2C1268.2 461.074 1242.28 435.17 1242.28 403.178V-431H1218.99V403.178C1218.99 435.17 1193.08 461.074 1161.08 461.074H943.139C911.135 461.074 885.222 435.17 885.222 403.178V360.323H861.935V403.178C861.935 435.17 836.021 461.074 804.017 461.074H-46V484.352H804.017C836.021 484.352 861.935 510.256 861.935 542.248V759.984C861.935 791.976 836.021 817.88 804.017 817.88H745.622V841.158H804.017C836.021 841.158 861.935 867.062 861.935 899.053V1116.79C861.935 1148.78 836.021 1174.69 804.017 1174.69H0.573021V1197.96H804.017C836.021 1197.96 861.935 1223.87 861.935 1255.86V1442.56C861.935 1474.55 836.021 1500.45 804.017 1500.45H745.622V1523.73H804.017C836.021 1523.73 861.935 1549.64 861.935 1581.63V2415.81H885.222V1581.63C885.222 1549.64 911.135 1523.73 943.139 1523.73H1160.96C1192.96 1523.73 1218.88 1549.64 1218.88 1581.63V1624.48H1242.16V1581.63C1242.16 1549.64 1268.08 1523.73 1300.08 1523.73H1517.9C1549.9 1523.73 1575.82 1549.64 1575.82 1581.63V2417H1599.1V1581.63C1599.1 1549.64 1625.02 1523.73 1657.02 1523.73H1843.79C1875.79 1523.73 1901.71 1549.64 1901.71 1581.63V1624.48H1924.99V1581.63C1924.99 1549.64 1950.91 1523.73 1982.91 1523.73H2801.88V1500.57H2802ZM1843.79 1174.69H1657.02C1625.02 1174.69 1599.1 1148.78 1599.1 1116.79V899.053C1599.1 867.062 1625.02 841.158 1657.02 841.158H1843.79C1875.79 841.158 1901.71 867.062 1901.71 899.053V1116.79C1901.83 1148.78 1875.79 1174.69 1843.79 1174.69ZM1517.9 1174.69H1300.08C1268.08 1174.69 1242.16 1148.78 1242.16 1116.79V899.053C1242.16 867.062 1268.08 841.158 1300.08 841.158H1517.9C1549.9 841.158 1575.82 867.062 1575.82 899.053V1116.79C1575.82 1148.78 1549.9 1174.69 1517.9 1174.69ZM1901.83 542.248V759.984C1901.83 791.976 1875.91 817.88 1843.91 817.88H1657.14C1625.14 817.88 1599.22 791.976 1599.22 759.984V542.248C1599.22 510.256 1625.14 484.352 1657.14 484.352H1843.91C1875.79 484.352 1901.83 510.256 1901.83 542.248ZM1575.82 542.248V759.984C1575.82 791.976 1549.9 817.88 1517.9 817.88H1300.08C1268.08 817.88 1242.16 791.976 1242.16 759.984V542.248C1242.16 510.256 1268.08 484.352 1300.08 484.352H1517.9C1549.9 484.352 1575.82 510.256 1575.82 542.248ZM943.139 484.352H1160.96C1192.96 484.352 1218.88 510.256 1218.88 542.248V759.984C1218.88 791.976 1192.96 817.88 1160.96 817.88H943.139C911.135 817.88 885.222 791.976 885.222 759.984V542.248C885.222 510.256 911.135 484.352 943.139 484.352ZM943.139 841.158H1160.96C1192.96 841.158 1218.88 867.062 1218.88 899.053V1116.79C1218.88 1148.78 1192.96 1174.69 1160.96 1174.69H943.139C911.135 1174.69 885.222 1148.78 885.222 1116.79V899.053C885.222 867.181 911.135 841.158 943.139 841.158ZM885.222 1442.56V1255.86C885.222 1223.87 911.135 1197.96 943.139 1197.96H1160.96C1192.96 1197.96 1218.88 1223.87 1218.88 1255.86V1442.56C1218.88 1474.55 1192.96 1500.45 1160.96 1500.45H943.139C911.135 1500.57 885.222 1474.55 885.222 1442.56ZM1242.16 1442.56V1255.86C1242.16 1223.87 1268.08 1197.96 1300.08 1197.96H1517.9C1549.9 1197.96 1575.82 1223.87 1575.82 1255.86V1442.56C1575.82 1474.55 1549.9 1500.45 1517.9 1500.45H1300.08C1268.2 1500.57 1242.16 1474.55 1242.16 1442.56ZM1599.1 1442.56V1255.86C1599.1 1223.87 1625.02 1197.96 1657.02 1197.96H1843.79C1875.79 1197.96 1901.71 1223.87 1901.71 1255.86V1442.56C1901.71 1474.55 1875.79 1500.45 1843.79 1500.45H1657.02C1625.14 1500.57 1599.1 1474.55 1599.1 1442.56Z" fill="#F8B044"/>
</svg>
