<svg width="1920" height="1080" viewBox="0 0 1920 1080" fill="none" xmlns="http://www.w3.org/2000/svg">
<path d="M3639 1969.27H2537.36C2494.31 1969.27 2459.45 1934.42 2459.45 1891.39V1640.25C2459.45 1597.21 2494.31 1562.37 2537.36 1562.37H2636.79V1531.06H2537.36C2494.31 1531.06 2459.45 1496.21 2459.45 1453.18V1160.29C2459.45 1117.25 2494.31 1082.41 2537.36 1082.41H3639V1051.1H2537.36C2494.31 1051.1 2459.45 1016.25 2459.45 973.218V680.168C2459.45 637.134 2494.31 602.29 2537.36 602.29H2574.15V570.978H2537.36C2494.31 570.978 2459.45 536.133 2459.45 493.099V-629H2428.13V493.099C2428.13 536.133 2393.27 570.978 2350.22 570.978H2098.99C2055.94 570.978 2021.08 536.133 2021.08 493.099V372.828H1989.75V493.099C1989.75 536.133 1954.9 570.978 1911.85 570.978H1618.85C1575.8 570.978 1540.94 536.133 1540.94 493.099V-629H1509.61V493.099C1509.61 536.133 1474.76 570.978 1431.71 570.978H1138.55C1095.49 570.978 1060.64 536.133 1060.64 493.099V435.452H1029.31V493.099C1029.31 536.133 994.455 570.978 951.405 570.978H-192V602.29H951.405C994.455 602.29 1029.31 637.134 1029.31 680.168V973.057C1029.31 1016.09 994.455 1050.94 951.405 1050.94H872.854V1082.25H951.405C994.455 1082.25 1029.31 1117.09 1029.31 1160.13V1453.02C1029.31 1496.05 994.455 1530.9 951.405 1530.9H-129.352V1562.21H951.405C994.455 1562.21 1029.31 1597.05 1029.31 1640.09V1891.23C1029.31 1934.26 994.455 1969.1 951.405 1969.1H872.854V2000.42H951.405C994.455 2000.42 1029.31 2035.26 1029.31 2078.3V3200.39H1060.64V2078.3C1060.64 2035.26 1095.49 2000.42 1138.55 2000.42H1431.54C1474.59 2000.42 1509.45 2035.26 1509.45 2078.3V2135.94H1540.78V2078.3C1540.78 2035.26 1575.63 2000.42 1618.69 2000.42H1911.68C1954.74 2000.42 1989.59 2035.26 1989.59 2078.3V3202H2020.92V2078.3C2020.92 2035.26 2055.77 2000.42 2098.83 2000.42H2350.06C2393.11 2000.42 2427.97 2035.26 2427.97 2078.3V2135.94H2459.29V2078.3C2459.29 2035.26 2494.15 2000.42 2537.2 2000.42H3638.84V1969.27H3639ZM2350.06 1530.9H2098.83C2055.77 1530.9 2020.92 1496.05 2020.92 1453.02V1160.13C2020.92 1117.09 2055.77 1082.25 2098.83 1082.25H2350.06C2393.11 1082.25 2427.97 1117.09 2427.97 1160.13V1453.02C2428.13 1496.05 2393.11 1530.9 2350.06 1530.9ZM1911.68 1530.9H1618.69C1575.63 1530.9 1540.78 1496.05 1540.78 1453.02V1160.13C1540.78 1117.09 1575.63 1082.25 1618.69 1082.25H1911.68C1954.74 1082.25 1989.59 1117.09 1989.59 1160.13V1453.02C1989.59 1496.05 1954.74 1530.9 1911.68 1530.9ZM2428.13 680.168V973.057C2428.13 1016.09 2393.27 1050.94 2350.22 1050.94H2098.99C2055.94 1050.94 2021.08 1016.09 2021.08 973.057V680.168C2021.08 637.134 2055.94 602.29 2098.99 602.29H2350.22C2393.11 602.29 2428.13 637.134 2428.13 680.168ZM1989.59 680.168V973.057C1989.59 1016.09 1954.74 1050.94 1911.68 1050.94H1618.69C1575.63 1050.94 1540.78 1016.09 1540.78 973.057V680.168C1540.78 637.134 1575.63 602.29 1618.69 602.29H1911.68C1954.74 602.29 1989.59 637.134 1989.59 680.168ZM1138.55 602.29H1431.54C1474.59 602.29 1509.45 637.134 1509.45 680.168V973.057C1509.45 1016.09 1474.59 1050.94 1431.54 1050.94H1138.55C1095.49 1050.94 1060.64 1016.09 1060.64 973.057V680.168C1060.64 637.134 1095.49 602.29 1138.55 602.29ZM1138.55 1082.25H1431.54C1474.59 1082.25 1509.45 1117.09 1509.45 1160.13V1453.02C1509.45 1496.05 1474.59 1530.9 1431.54 1530.9H1138.55C1095.49 1530.9 1060.64 1496.05 1060.64 1453.02V1160.13C1060.64 1117.25 1095.49 1082.25 1138.55 1082.25ZM1060.64 1891.23V1640.09C1060.64 1597.05 1095.49 1562.21 1138.55 1562.21H1431.54C1474.59 1562.21 1509.45 1597.05 1509.45 1640.09V1891.23C1509.45 1934.26 1474.59 1969.1 1431.54 1969.1H1138.55C1095.49 1969.27 1060.64 1934.26 1060.64 1891.23ZM1540.78 1891.23V1640.09C1540.78 1597.05 1575.63 1562.21 1618.69 1562.21H1911.68C1954.74 1562.21 1989.59 1597.05 1989.59 1640.09V1891.23C1989.59 1934.26 1954.74 1969.1 1911.68 1969.1H1618.69C1575.8 1969.27 1540.78 1934.26 1540.78 1891.23ZM2020.92 1891.23V1640.09C2020.92 1597.05 2055.77 1562.21 2098.83 1562.21H2350.06C2393.11 1562.21 2427.97 1597.05 2427.97 1640.09V1891.23C2427.97 1934.26 2393.11 1969.1 2350.06 1969.1H2098.83C2055.94 1969.27 2020.92 1934.26 2020.92 1891.23Z" fill="#055A5B"/>
</svg>
