<svg width="260" height="283" viewBox="0 0 260 283" fill="none" xmlns="http://www.w3.org/2000/svg">
<path d="M361 224.338H228.148C222.956 224.338 218.752 220.136 218.752 214.946V184.66C218.752 179.47 222.956 175.268 228.148 175.268H240.139V171.492H228.148C222.956 171.492 218.752 167.29 218.752 162.1V126.779C218.752 121.59 222.956 117.388 228.148 117.388H361V113.612H228.148C222.956 113.612 218.752 109.409 218.752 104.22V68.8794C218.752 63.6897 222.956 59.4875 228.148 59.4875H232.584V55.7115H228.148C222.956 55.7115 218.752 51.5093 218.752 46.3196V-89H214.975V46.3196C214.975 51.5093 210.771 55.7115 205.579 55.7115H175.282C170.09 55.7115 165.886 51.5093 165.886 46.3196V31.8156H162.109V46.3196C162.109 51.5093 157.905 55.7115 152.714 55.7115H117.379C112.188 55.7115 107.984 51.5093 107.984 46.3196V-89H104.206V46.3196C104.206 51.5093 100.003 55.7115 94.811 55.7115H59.4573C54.2656 55.7115 50.0619 51.5093 50.0619 46.3196V39.3678H46.2844V46.3196C46.2844 51.5093 42.0807 55.7115 36.8891 55.7115H-101V59.4875H36.8891C42.0807 59.4875 46.2844 63.6897 46.2844 68.8794V104.2C46.2844 109.39 42.0807 113.592 36.8891 113.592H27.4162V117.368H36.8891C42.0807 117.368 46.2844 121.57 46.2844 126.76V162.081C46.2844 167.271 42.0807 171.473 36.8891 171.473H-93.445V175.249H36.8891C42.0807 175.249 46.2844 179.451 46.2844 184.641V214.927C46.2844 220.117 42.0807 224.319 36.8891 224.319H27.4162V228.095H36.8891C42.0807 228.095 46.2844 232.297 46.2844 237.487V372.806H50.0619V237.487C50.0619 232.297 54.2656 228.095 59.4573 228.095H94.7916C99.9833 228.095 104.187 232.297 104.187 237.487V244.439H107.964V237.487C107.964 232.297 112.168 228.095 117.36 228.095H152.694C157.886 228.095 162.09 232.297 162.09 237.487V373H165.867V237.487C165.867 232.297 170.071 228.095 175.262 228.095H205.56C210.752 228.095 214.955 232.297 214.955 237.487V244.439H218.733V237.487C218.733 232.297 222.937 228.095 228.128 228.095H360.981V224.338H361ZM205.56 171.473H175.262C170.071 171.473 165.867 167.271 165.867 162.081V126.76C165.867 121.57 170.071 117.368 175.262 117.368H205.56C210.752 117.368 214.955 121.57 214.955 126.76V162.081C214.975 167.271 210.752 171.473 205.56 171.473ZM152.694 171.473H117.36C112.168 171.473 107.964 167.271 107.964 162.081V126.76C107.964 121.57 112.168 117.368 117.36 117.368H152.694C157.886 117.368 162.09 121.57 162.09 126.76V162.081C162.09 167.271 157.886 171.473 152.694 171.473ZM214.975 68.8794V104.2C214.975 109.39 210.771 113.592 205.579 113.592H175.282C170.09 113.592 165.886 109.39 165.886 104.2V68.8794C165.886 63.6897 170.09 59.4875 175.282 59.4875H205.579C210.752 59.4875 214.975 63.6897 214.975 68.8794ZM162.09 68.8794V104.2C162.09 109.39 157.886 113.592 152.694 113.592H117.36C112.168 113.592 107.964 109.39 107.964 104.2V68.8794C107.964 63.6897 112.168 59.4875 117.36 59.4875H152.694C157.886 59.4875 162.09 63.6897 162.09 68.8794ZM59.4573 59.4875H94.7916C99.9833 59.4875 104.187 63.6897 104.187 68.8794V104.2C104.187 109.39 99.9833 113.592 94.7916 113.592H59.4573C54.2656 113.592 50.0619 109.39 50.0619 104.2V68.8794C50.0619 63.6897 54.2656 59.4875 59.4573 59.4875ZM59.4573 117.368H94.7916C99.9833 117.368 104.187 121.57 104.187 126.76V162.081C104.187 167.271 99.9833 171.473 94.7916 171.473H59.4573C54.2656 171.473 50.0619 167.271 50.0619 162.081V126.76C50.0619 121.59 54.2656 117.368 59.4573 117.368ZM50.0619 214.927V184.641C50.0619 179.451 54.2656 175.249 59.4573 175.249H94.7916C99.9833 175.249 104.187 179.451 104.187 184.641V214.927C104.187 220.117 99.9833 224.319 94.7916 224.319H59.4573C54.2656 224.338 50.0619 220.117 50.0619 214.927ZM107.964 214.927V184.641C107.964 179.451 112.168 175.249 117.36 175.249H152.694C157.886 175.249 162.09 179.451 162.09 184.641V214.927C162.09 220.117 157.886 224.319 152.694 224.319H117.36C112.188 224.338 107.964 220.117 107.964 214.927ZM165.867 214.927V184.641C165.867 179.451 170.071 175.249 175.262 175.249H205.56C210.752 175.249 214.955 179.451 214.955 184.641V214.927C214.955 220.117 210.752 224.319 205.56 224.319H175.262C170.09 224.338 165.867 220.117 165.867 214.927Z" fill="#FFF4CE"/>
</svg>
