<svg width="1080" height="1350" viewBox="0 0 1080 1350" fill="none" xmlns="http://www.w3.org/2000/svg">
<path d="M2044 976.701H1387.79C1362.15 976.701 1341.38 955.945 1341.38 930.311V780.715C1341.38 755.081 1362.15 734.325 1387.79 734.325H1447.02V715.674H1387.79C1362.15 715.674 1341.38 694.918 1341.38 669.284V494.82C1341.38 469.186 1362.15 448.43 1387.79 448.43H2044V429.778H1387.79C1362.15 429.778 1341.38 409.022 1341.38 383.388V208.828C1341.38 183.194 1362.15 162.439 1387.79 162.439H1409.7V143.787H1387.79C1362.15 143.787 1341.38 123.031 1341.38 97.397V-571H1322.72V97.397C1322.72 123.031 1301.96 143.787 1276.32 143.787H1126.66C1101.02 143.787 1080.26 123.031 1080.26 97.397V25.7557H1061.6V97.397C1061.6 123.031 1040.83 143.787 1015.19 143.787H840.661C815.017 143.787 794.254 123.031 794.254 97.397V-571H775.595V97.397C775.595 123.031 754.831 143.787 729.188 143.787H554.562C528.918 143.787 508.154 123.031 508.154 97.397V63.059H489.496V97.397C489.496 123.031 468.732 143.787 443.088 143.787H-238V162.439H443.088C468.732 162.439 489.496 183.194 489.496 208.828V383.293C489.496 408.927 468.732 429.683 443.088 429.683H396.298V448.334H443.088C468.732 448.334 489.496 469.09 489.496 494.724V669.188C489.496 694.822 468.732 715.578 443.088 715.578H-200.683V734.23H443.088C468.732 734.23 489.496 754.986 489.496 780.62V930.215C489.496 955.849 468.732 976.605 443.088 976.605H396.298V995.257H443.088C468.732 995.257 489.496 1016.01 489.496 1041.65V1710.04H508.154V1041.65C508.154 1016.01 528.918 995.257 554.562 995.257H729.092C754.735 995.257 775.499 1016.01 775.499 1041.65V1075.98H794.158V1041.65C794.158 1016.01 814.922 995.257 840.565 995.257H1015.1C1040.74 995.257 1061.5 1016.01 1061.5 1041.65V1711H1080.16V1041.65C1080.16 1016.01 1100.93 995.257 1126.57 995.257H1276.22C1301.86 995.257 1322.63 1016.01 1322.63 1041.65V1075.98H1341.29V1041.65C1341.29 1016.01 1362.05 995.257 1387.69 995.257H2043.9V976.701H2044ZM1276.22 715.578H1126.57C1100.93 715.578 1080.16 694.822 1080.16 669.188V494.724C1080.16 469.09 1100.93 448.334 1126.57 448.334H1276.22C1301.86 448.334 1322.63 469.09 1322.63 494.724V669.188C1322.72 694.822 1301.86 715.578 1276.22 715.578ZM1015.1 715.578H840.565C814.922 715.578 794.158 694.822 794.158 669.188V494.724C794.158 469.09 814.922 448.334 840.565 448.334H1015.1C1040.74 448.334 1061.5 469.09 1061.5 494.724V669.188C1061.5 694.822 1040.74 715.578 1015.1 715.578ZM1322.72 208.828V383.293C1322.72 408.927 1301.96 429.683 1276.32 429.683H1126.66C1101.02 429.683 1080.26 408.927 1080.26 383.293V208.828C1080.26 183.194 1101.02 162.439 1126.66 162.439H1276.32C1301.86 162.439 1322.72 183.194 1322.72 208.828ZM1061.5 208.828V383.293C1061.5 408.927 1040.74 429.683 1015.1 429.683H840.565C814.922 429.683 794.158 408.927 794.158 383.293V208.828C794.158 183.194 814.922 162.439 840.565 162.439H1015.1C1040.74 162.439 1061.5 183.194 1061.5 208.828ZM554.562 162.439H729.092C754.735 162.439 775.499 183.194 775.499 208.828V383.293C775.499 408.927 754.735 429.683 729.092 429.683H554.562C528.918 429.683 508.154 408.927 508.154 383.293V208.828C508.154 183.194 528.918 162.439 554.562 162.439ZM554.562 448.334H729.092C754.735 448.334 775.499 469.09 775.499 494.724V669.188C775.499 694.822 754.735 715.578 729.092 715.578H554.562C528.918 715.578 508.154 694.822 508.154 669.188V494.724C508.154 469.186 528.918 448.334 554.562 448.334ZM508.154 930.215V780.62C508.154 754.986 528.918 734.23 554.562 734.23H729.092C754.735 734.23 775.499 754.986 775.499 780.62V930.215C775.499 955.849 754.735 976.605 729.092 976.605H554.562C528.918 976.701 508.154 955.849 508.154 930.215ZM794.158 930.215V780.62C794.158 754.986 814.922 734.23 840.565 734.23H1015.1C1040.74 734.23 1061.5 754.986 1061.5 780.62V930.215C1061.5 955.849 1040.74 976.605 1015.1 976.605H840.565C815.017 976.701 794.158 955.849 794.158 930.215ZM1080.16 930.215V780.62C1080.16 754.986 1100.93 734.23 1126.57 734.23H1276.22C1301.86 734.23 1322.63 754.986 1322.63 780.62V930.215C1322.63 955.849 1301.86 976.605 1276.22 976.605H1126.57C1101.02 976.701 1080.16 955.849 1080.16 930.215Z" fill="#F8B044"/>
</svg>
