<?xml version="1.0" encoding="UTF-8"?>
<svg id="Layer_2" data-name="Layer 2" xmlns="http://www.w3.org/2000/svg" viewBox="0 0 392.08 49.68">
  <defs>
    <style>
      .cls-1 {
        fill: #f8b044;
      }
    </style>
  </defs>
  <g id="Layer_2-2" data-name="Layer 2">
    <g id="uuid-fc0c6859-999e-4cbc-a083-0d3908a28fac" data-name="Layer 2-2">
      <g id="Layer_1-2" data-name="Layer 1-2">
        <g>
          <g>
            <path class="cls-1" d="M94.6.36h-2.58c-1.47,6.47-5.6,12.38-11.21,15.94-.57.36-1.19.71-1.86.7-.67,0-1.28-.36-1.85-.72-5.68-3.63-9.97-9.46-11.88-15.92-4.64,0-9.28.03-13.92,0,2.85,4.64,5.71,9.29,9.18,13.48,3.47,4.19,8.06,7.85,12.94,10.27l.02,18.29v7h10.68v-25.22c5.21-1.82,9.59-5.51,13.08-9.79s6.14-9.19,8.78-14.03h-11.39,0Z"/>
            <path class="cls-1" d="M147.31,2.09c0,.47.02.95.02,1.43v29.73c-1.3-1.72-2.67-3.55-4.09-5.44-2.03-2.71-4.04-5.4-6.02-8.05-1.88-2.51-3.74-4.99-5.54-7.37-1.69-2.23-3.12-4.15-4.24-5.68-1.15-1.57-1.87-2.57-2.21-3.06-.75-1.07-1.35-1.98-1.78-2.71l-.31-.52h-12.64v48.97h10.34v-3.29c-.01-.28-.02-.57-.02-.89V12.41c1.25,1.72,2.56,3.56,3.92,5.47,1.98,2.79,4.01,5.62,6.03,8.41,2.01,2.77,3.95,5.46,5.75,8,1.75,2.47,3.39,4.75,4.86,6.78,1.42,1.95,2.51,3.48,3.27,4.58.95,1.32,1.66,2.39,2.12,3.2l.3.54h10.61V.43h-10.41l.02,1.66h.02Z"/>
            <path class="cls-1" d="M11.22.43H0v46.72c0,.31.02.49,0,.74v1.5l11.21-.03v-1.47c-.03-.26-.04-.54-.04-.84v-17.09c0-.5.02-.83.05-1.04.3-.03.81-.07,1.67-.07h.83c2.98,0,5.73.44,8.19,1.31s4.65,2.05,6.54,3.51,3.49,3.09,4.77,4.86c1.26,1.74,4.27,7.63,4.87,9.36l.02.05c.04.11.08.22.11.32l.39,1.1h13.98l-1.57-2.17c-.23-.32-.48-.69-.75-1.09l-.32-.51c-.21-.33-.44-.73-.7-1.16l-.46-.76c-3.61-6.04-7.33-12.3-13.53-16.7-2.22-1.54-4.22-2.69-5.98-3.42-.45-.18-.88-.35-1.29-.51,1.26-.65,2.67-1.64,4.24-2.95,1.26-1.09,2.37-2.17,3.31-3.19,3.87-4.19,6.38-9.08,9.62-13.85l1.71-2.61h-14.28s-1.02,3.63-1.15,3.99c-1.15,3.25-3,6.54-5.27,9.15-1.77,2.05-3.81,3.68-6.05,4.82-2.18,1.12-4.35,1.69-6.43,1.69h-.75c-.88,0-1.39-.04-1.67-.08-.02-.17-.04-.43-.04-.81V.43Z"/>
          </g>
          <g>
            <path class="cls-1" d="M220,24.5c-8.32-5.14-18.44-3.84-27.48-6.59-1.33-.41-2.68-.93-3.67-1.91-2.37-2.34-.92-5.15,1.81-6.16,2.9-1.08,5.99-1.06,9.04-1.03s6.12.22,9.15.68c2.97.46,5.54,1.04,7.65,1.72,2.01.65,5.73,2.65,6.69,3.23l.15.1V2.07c-2.32-.19-4.62-.5-6.92-.78-1.65-.2-3.3-.32-4.94-.53-3.9-.51-8.54-.76-13.79-.76-4.66,0-8.57.58-11.6,1.72-3.14,1.17-5.54,2.81-7.11,4.87-1.61,2.09-2.43,4.5-2.43,7.18,0,3.06.78,5.65,2.3,7.7,1.52,2.03,3.93,3.64,7.17,4.81,3.1,1.11,7.22,2,12.26,2.67,4.34.51,9.12.96,13.19,2.67,1.23.51,2.39,1.4,2.82,2.66.26.76.23,1.61-.02,2.38-.65,1.99-2.48,2.81-4.34,3.32-2.01.54-5.04.82-9,.82-4.47,0-8.35-.31-11.55-.93-3.16-.6-5.73-1.34-7.62-2.2-1.54-.7-2.92-1.46-4.03-2.76-.69-.8-1.39-1.61-2.08-2.41v14.54l1.48.22c2.54.41,6,1.01,9.96,1.48l.53.06c4.21.5,9.11.76,14.56.76h.13c3.68,0,6.98-.3,9.79-.89,2.87-.6,5.32-1.52,7.31-2.74,2.04-1.26,3.59-2.78,4.63-4.56,1.04-1.78,1.57-3.81,1.57-6.02,0-3.26-.8-5.98-2.38-8.08-.79-1.05-1.93-1.98-3.23-2.77h0Z"/>
            <path class="cls-1" d="M245.47.59h-11.22v46.72c0,.31.02.49,0,.74v1.5l11.21-.03v-1.47c-.03-.26-.04-.54-.04-.84v-17.09c0-.5.02-.83.05-1.04.3-.03.81-.07,1.67-.07h.83c2.98,0,5.73.44,8.19,1.31s4.65,2.05,6.54,3.51,3.49,3.09,4.77,4.86c1.26,1.74,4.27,7.63,4.87,9.36l.02.05c.04.11.08.22.11.32l.39,1.1h13.98l-1.57-2.17c-.23-.32-.48-.69-.75-1.09l-.32-.51c-.21-.33-.44-.73-.7-1.16l-.46-.76c-3.61-6.04-7.33-12.3-13.53-16.7-2.22-1.54-4.22-2.69-5.98-3.42-.45-.18-.88-.35-1.29-.51,1.26-.65,2.67-1.64,4.24-2.95,1.26-1.09,2.37-2.17,3.31-3.19,3.87-4.19,6.38-9.08,9.62-13.85l1.71-2.61h-14.28s-1.02,3.63-1.15,3.99c-1.15,3.25-3,6.54-5.27,9.15-1.77,2.05-3.81,3.68-6.05,4.82-2.18,1.12-4.35,1.69-6.43,1.69h-.75c-.88,0-1.39-.04-1.67-.08-.02-.17-.04-.43-.04-.81V.59Z"/>
            <path class="cls-1" d="M381.71,2.2c0,.47.02.95.02,1.44v29.84c-1.3-1.73-2.67-3.56-4.09-5.46-2.03-2.72-4.04-5.42-6.02-8.08-1.88-2.52-3.74-5.01-5.54-7.4-1.69-2.24-3.12-4.16-4.24-5.7-1.15-1.58-1.87-2.58-2.21-3.08-.75-1.07-1.35-1.99-1.78-2.72l-.31-.52h-12.64v49.16h10.34v-3.31c-.01-.28-.02-.57-.02-.89V12.56c1.25,1.73,2.56,3.57,3.92,5.49,1.98,2.8,4.01,5.64,6.03,8.44,2.01,2.78,3.95,5.49,5.75,8.03,1.75,2.48,3.39,4.77,4.86,6.8,1.42,1.96,2.51,3.5,3.27,4.6.95,1.32,1.66,2.4,2.12,3.21l.3.54h10.61V.53h-10.41l.02,1.67h.02Z"/>
            <path class="cls-1" d="M328.87.56h-2.58c-1.47,6.47-5.6,12.38-11.21,15.94-.57.36-1.19.71-1.86.7-.67,0-1.28-.36-1.85-.72-5.67-3.63-9.97-9.47-11.88-15.93-4.64,0-9.28.03-13.92,0,2.85,4.64,5.71,9.29,9.18,13.48,3.47,4.19,8.06,7.85,12.94,10.27l.02,18.29v7h10.68v-25.22c5.21-1.82,9.59-5.51,13.08-9.79s6.14-9.18,8.78-14.03h-11.39.01Z"/>
          </g>
        </g>
      </g>
    </g>
  </g>
</svg>