<?xml version="1.0" encoding="UTF-8"?>
<svg id="Layer_2" data-name="Layer 2" xmlns="http://www.w3.org/2000/svg" viewBox="0 0 387.8 180.76">
  <g id="Layer_2-2" data-name="Layer 2">
    <g id="Layer_1-2" data-name="Layer 1-2">
      <g>
        <g>
          <path d="M72.73.12h-20.1v83.71c0,.55.03.88,0,1.33v2.69l20.08-.06v-2.64c-.05-.46-.07-.96-.07-1.5v-30.63c0-.89.04-1.49.09-1.86.54-.06,1.46-.13,2.99-.13h1.48c5.34,0,10.27.79,14.67,2.34s8.34,3.68,11.72,6.29c3.39,2.61,6.26,5.54,8.54,8.7,2.26,3.12,7.65,13.67,8.73,16.77l.03.09c.08.2.14.39.2.58l.69,1.97h25.05l-2.82-3.89c-.42-.58-.86-1.23-1.33-1.95h-.02l-.57-.92c-.37-.6-.79-1.3-1.25-2.08l-.82-1.37c-6.46-10.83-13.13-22.04-24.24-29.92-3.97-2.76-7.57-4.82-10.72-6.12-.8-.33-1.58-.63-2.32-.91,2.25-1.17,4.79-2.94,7.59-5.28,2.25-1.96,4.24-3.88,5.93-5.72,1.81-1.98,3.7-4.31,5.64-6.95,1.51-2.08,5.29-8.04,8.4-13l1.67-2.65c.66-1,1.11-1.67,1.52-2.21l3.06-4.68h-25.58l-.87,3.6c-.11.62-.32,1.23-.54,2.07-1.26,4.7-6.9,14.19-10.08,17.86-3.18,3.68-6.82,6.59-10.84,8.64-3.91,2.01-7.79,3.02-11.53,3.02h-1.35c-1.57,0-2.49-.07-2.99-.14-.04-.3-.08-.77-.08-1.45V5.69l.04-5.57Z"/>
          <path d="M222.14,0h-4.63c-2.63,11.6-10.03,22.19-20.08,28.56-1.02.65-2.13,1.27-3.33,1.26-1.2,0-2.3-.64-3.31-1.29-10.17-6.5-17.87-16.95-21.28-28.53-8.31,0-16.62.06-24.94,0,5.1,8.31,10.23,16.65,16.44,24.16s14.45,14.07,23.19,18.4l.03,32.77v12.54h19.14c0-15.06,0-30.13,0-45.19,9.33-3.26,17.19-9.88,23.43-17.54s11.01-16.46,15.74-25.14h-20.41Z"/>
          <path d="M316.57,3.1c.01.85.03,1.7.04,2.57v.24c-.01.25-.01.5-.01.76v52.29c-2.33-3.09-4.78-6.36-7.32-9.74-3.64-4.86-7.24-9.67-10.79-14.43-3.36-4.5-6.7-8.94-9.92-13.21-3.03-4-5.59-7.43-7.6-10.18-2.06-2.82-3.35-4.61-3.96-5.49-1.34-1.91-2.41-3.55-3.19-4.86l-.55-.93h-22.65v87.74h18.53v-5.9c-.02-.5-.03-1.03-.03-1.59V21.59c2.24,3.09,4.59,6.38,7.02,9.81,3.54,5,7.18,10.07,10.8,15.06,3.6,4.97,7.07,9.79,10.31,14.34,3.14,4.42,6.07,8.51,8.71,12.15,2.54,3.49,4.5,6.24,5.86,8.21,1.7,2.36,2.97,4.29,3.79,5.73l.54.96h19.01V.12h-18.65l.04,2.98h.02Z"/>
        </g>
        <g>
          <path d="M79.47,135.61c-14.9-9.21-33.04-6.88-49.23-11.81-2.39-.73-4.8-1.67-6.58-3.43-4.25-4.2-1.64-9.22,3.25-11.04,5.19-1.93,10.73-1.9,16.19-1.84s10.96.39,16.4,1.22c5.32.82,9.93,1.86,13.7,3.09,3.6,1.16,10.27,4.74,11.99,5.79l.27.18v-22.34c-4.16-.34-8.27-.9-12.4-1.39-2.95-.35-5.91-.57-8.86-.95-6.99-.91-15.3-1.37-24.71-1.37-8.35,0-15.35,1.04-20.78,3.08-5.63,2.09-9.92,5.03-12.74,8.72-2.89,3.74-4.35,8.07-4.35,12.87,0,5.49,1.39,10.13,4.13,13.8,2.73,3.63,7.05,6.52,12.85,8.61,5.56,1.99,12.94,3.59,21.96,4.79,7.77.92,16.34,1.72,23.63,4.78,2.2.92,4.28,2.5,5.06,4.76.47,1.37.41,2.89-.04,4.26-1.16,3.56-4.44,5.03-7.78,5.94-3.6.97-9.03,1.47-16.13,1.47-8.01,0-14.97-.56-20.7-1.66-5.66-1.08-10.26-2.4-13.65-3.95-2.76-1.26-5.23-2.62-7.22-4.95-1.24-1.44-2.49-2.88-3.73-4.31v26.06l2.66.39c4.56.73,10.75,1.81,17.85,2.66l.95.11c7.54.9,16.32,1.37,26.08,1.37h.23c6.6,0,12.51-.54,17.55-1.6,5.14-1.08,9.54-2.73,13.09-4.91,3.65-2.25,6.44-4.99,8.3-8.17,1.87-3.19,2.82-6.82,2.82-10.78,0-5.85-1.44-10.72-4.27-14.48-1.42-1.88-3.46-3.54-5.78-4.97h0Z"/>
          <path d="M125.1,92.78h-20.1v83.71c0,.55.03.88,0,1.33v2.69l20.08-.06v-2.64c-.05-.46-.07-.96-.07-1.5v-30.63c0-.89.04-1.49.09-1.86.54-.06,1.46-.13,2.99-.13h1.48c5.34,0,10.27.79,14.67,2.34s8.34,3.68,11.72,6.29c3.39,2.61,6.26,5.54,8.54,8.7,2.26,3.12,7.65,13.67,8.73,16.77l.03.09c.08.2.14.39.2.58l.69,1.97h25.05l-2.82-3.89c-.42-.58-.86-1.23-1.35-1.95l-.57-.92c-.37-.6-.79-1.3-1.25-2.08l-.82-1.37c-6.46-10.83-13.13-22.04-24.24-29.92-3.97-2.76-7.57-4.82-10.72-6.12-.8-.33-1.58-.63-2.32-.91,2.25-1.17,4.79-2.94,7.59-5.28,2.25-1.96,4.24-3.88,5.93-5.72,1.81-1.98,3.7-4.31,5.64-6.95,1.51-2.08,5.29-8.04,8.4-13,2.02-3.22,4.17-6.36,6.25-9.54h-25.58l-.87,3.6c-.11.62-.32,1.23-.54,2.07-1.26,4.7-6.9,14.19-10.08,17.86-3.18,3.68-6.82,6.59-10.84,8.64-3.91,2.01-7.79,3.02-11.53,3.02h-1.35c-1.57,0-2.49-.07-2.99-.14-.04-.3-.08-.77-.08-1.45v-28.03l.04-5.57Z"/>
          <path d="M369.21,95.67c.01.85.03,1.71.04,2.58v.24c-.01.25-.01.51-.01.76v52.49c-2.33-3.1-4.78-6.38-7.32-9.78-3.64-4.88-7.24-9.71-10.79-14.48-3.36-4.52-6.7-8.98-9.92-13.26-3.03-4.02-5.59-7.46-7.6-10.22-2.06-2.83-3.35-4.63-3.96-5.51-1.34-1.92-2.41-3.56-3.19-4.88l-.55-.93h-22.65v88.08h18.53v-5.93c-.02-.51-.03-1.03-.03-1.6v-59c2.24,3.1,4.59,6.4,7.02,9.84,3.54,5.02,7.18,10.11,10.8,15.12,3.6,4.99,7.07,9.83,10.31,14.39,3.14,4.44,6.07,8.54,8.71,12.19,2.54,3.51,4.5,6.27,5.86,8.24,1.7,2.37,2.97,4.3,3.79,5.76l.54.97h19.01v-88.07h-18.65l.04,3h.02Z"/>
          <path d="M274.53,92.72h-4.63c-2.63,11.6-10.03,22.19-20.08,28.56-1.02.65-2.13,1.27-3.33,1.26-1.2,0-2.3-.64-3.31-1.29-10.16-6.51-17.87-16.96-21.28-28.54-8.31,0-16.62.06-24.94,0,5.1,8.31,10.23,16.65,16.44,24.16s14.45,14.07,23.19,18.4l.03,32.77v12.54h19.14c0-15.06,0-30.13,0-45.19,9.33-3.26,17.19-9.88,23.43-17.54s11-16.45,15.73-25.13h-20.41.01Z"/>
        </g>
      </g>
    </g>
  </g>
</svg>