<svg xmlns="http://www.w3.org/2000/svg" viewBox="-100 -80 1170 2450" width="500" height="1050">
  <defs>
    <!-- Clip path using the body silhouette -->
    <clipPath id="bodyClip">
      <path transform="translate(41.5,630.92)" d="M 634.5,1566.4 C 630.33,1564.53 624.15,1558.79 621.07,1553.93 C 619.85,1552.01 618.05,1547.51 617.06,1543.93 C 616.07,1540.36 614.04,1534.96 612.54,1531.93 C 609.03,1524.85 605.88,1505.39 604.53,1482.43 C 603.62,1467.04 603.19,1464.44 599.97,1454.93 C 598.01,1449.16 595.79,1441.73 595.02,1438.43 C 594.25,1435.13 593.19,1430.63 592.65,1428.43 C 592.12,1426.23 591.36,1420.16 590.97,1414.93 C 590.44,1407.71 589.42,1403.15 586.72,1395.93 C 584.77,1390.71 582.85,1383.51 582.46,1379.93 C 582.02,1375.88 580.42,1370.47 578.21,1365.57 C 573.2,1354.43 572.74,1348.57 576.06,1337.93 C 580.82,1322.7 580.48,1300.45 574.96,1265.43 C 572.17,1247.76 564.32,1204.18 561.35,1189.93 C 557.19,1169.9 555.94,1165.34 545.57,1132.28 C 536.74,1104.14 536.18,1098.25 532.64,996.43 L 531.77,971.43 L 526.53,957.94 C 523.64,950.52 519.69,941.3 517.75,937.44 C 512.22,926.46 504.86,904.37 502.58,891.89 C 501.12,883.92 500.49,876.3 500.48,866.47 C 500.47,858.75 500.03,848.38 499.51,843.43 C 498.98,838.48 498.06,826.56 497.47,816.93 C 496.87,807.31 495.52,793.36 494.47,785.93 C 492.03,768.73 481.04,715.52 473.51,684.43 C 469.93,669.68 466.81,653.76 465.4,643.11 C 464.14,633.58 462.64,625.16 462.06,624.39 C 461.19,623.24 459.79,623.77 454.2,627.39 C 448.72,630.93 446.2,631.91 441.2,632.44 C 437.53,632.83 433.86,632.66 432.21,632.03 C 430.11,631.22 429.34,631.26 429.06,632.19 C 428.86,632.88 427.51,642.43 426.05,653.43 C 424.59,664.43 421.86,680.41 419.98,688.93 C 415.26,710.32 409.73,745.28 408.53,761.18 C 407.99,768.47 406.88,778.93 406.07,784.43 C 404.54,794.81 402.46,842.03 402.45,866.43 C 402.45,888 401.15,897.51 396.1,912.93 C 393.67,920.36 389.79,930.93 387.48,936.43 C 385.17,941.93 381.98,951.05 380.39,956.69 C 376.3,971.21 376.34,974.09 381.52,1043.5 C 382.1,1051.24 382.57,1064.29 382.57,1072.5 C 382.57,1093.39 380.87,1103.25 368.5,1154.43 C 366.37,1163.23 363.88,1174.48 362.97,1179.43 C 362.06,1184.38 360.41,1192.71 359.31,1197.93 C 358.21,1203.16 356.94,1210.13 356.47,1213.43 C 356.01,1216.73 354.73,1224.38 353.61,1230.43 C 350.87,1245.33 348.5,1272.18 348.5,1288.26 C 348.5,1299.08 348.96,1303.28 351.01,1311.37 C 354.73,1326.05 355.07,1332.98 352.49,1341.43 C 344.82,1366.56 343.46,1374.08 342.51,1396.93 C 341.8,1414.02 341.36,1417.48 338.99,1424.93 C 337.5,1429.61 335.25,1435.46 334,1437.93 C 330.77,1444.33 329.3,1455.23 329.46,1471.74 C 329.53,1479.61 329.15,1487.48 328.61,1489.24 C 328.07,1491 326.45,1497.12 325.01,1502.84 C 323.56,1508.56 321.46,1515.05 320.34,1517.25 C 319.22,1519.45 317.64,1523.54 316.83,1526.34 C 316.02,1529.14 313.77,1533.79 311.81,1536.68 C 308.79,1541.14 307.5,1542.15 303.2,1543.43 C 292.66,1546.56 284.02,1544.71 279.92,1538.45 C 277.61,1534.93 278.39,1524.01 281.37,1518.18 C 283.08,1514.83 283.24,1513.93 282.11,1513.93 C 280.4,1513.93 274.16,1524.77 272.6,1530.43 C 272,1532.63 271.16,1534.93 270.75,1535.54 C 269.47,1537.43 263.75,1539.93 260.7,1539.93 C 256.56,1539.93 251.18,1536.01 250.04,1532.16 C 249.29,1529.61 248.55,1528.93 246.52,1528.93 C 243.01,1528.93 239.56,1526.32 237.94,1522.44 C 236.99,1520.16 235.73,1519.03 233.73,1518.63 C 230.36,1517.96 228.5,1514.54 228.5,1509.01 C 228.5,1506.66 227.86,1504.65 226.84,1503.81 C 223.86,1501.35 220.5,1492.23 220.5,1486.6 C 220.5,1480.25 226.01,1455.45 228.2,1451.93 C 229.06,1450.56 230.8,1448.31 232.07,1446.93 C 233.34,1445.56 236.19,1440.83 238.4,1436.43 C 240.61,1432.03 245.58,1424.61 249.44,1419.93 C 256.92,1410.86 258.88,1408.14 265.24,1397.93 C 268,1393.49 269.62,1389.48 270.33,1385.26 C 271.03,1381.12 273.51,1374.86 277.86,1366.26 C 284.91,1352.32 285.56,1349.29 284.1,1336.93 C 283.32,1330.33 283.69,1328.31 290.02,1304.97 C 292.26,1296.7 291.86,1289.1 287.56,1257.43 C 285.39,1241.48 282.66,1218.76 281.5,1206.93 C 280.34,1195.11 278.53,1177.78 277.48,1168.43 C 276.42,1159.08 275.08,1146.71 274.48,1140.93 C 273.89,1135.16 271.78,1118.96 269.81,1104.93 C 266.56,1081.88 266.2,1077.18 266.11,1055.93 C 266,1033.17 266.24,1029.78 270.58,992.43 C 271.93,980.83 273.83,969.29 277.66,949.43 C 280.66,933.82 280.72,933.04 279.87,916.93 C 279.39,907.86 279,887.16 279,870.93 C 279,838.66 279.54,842.65 272.36,821.43 C 268.82,810.99 264.65,787.78 260.45,755.17 C 259.33,746.52 257.31,732.85 255.96,724.8 C 254.61,716.75 253.5,708.63 253.5,706.77 C 253.5,704.9 252.4,697.54 251.05,690.4 C 249.71,683.27 247.68,670.68 246.55,662.43 C 245.42,654.18 243.81,642.93 242.98,637.43 C 236.87,596.85 228.38,512.53 229.93,507.77 C 230.17,507.03 230.61,491.58 230.92,473.43 C 231.87,415.97 235.08,386.44 242.59,365.85 C 248.75,348.97 250.71,332.81 251,296.43 C 251.2,272.13 251.34,271.15 259.64,233.93 C 265.59,207.26 266.89,193.61 266.96,156.93 C 267,131.35 265.77,113.99 262.41,92.93 C 259.2,72.86 258.64,72.58 256.08,89.71 C 254.55,99.92 245.66,136.73 238.87,160.93 C 236.47,169.48 236.18,172.28 236.01,188.93 C 235.9,199.11 235.31,209.46 234.7,211.93 C 233.11,218.33 223.71,245.67 221.47,250.43 C 218.2,257.36 211.82,273.1 208.69,281.93 C 194.8,321.17 181.76,354.09 171.27,376.43 C 157.42,405.91 150.85,422.36 137.55,460.93 C 129.04,485.61 122.87,503.07 121.48,506.43 C 121.02,507.53 120.41,510.46 120.13,512.93 C 119.84,515.41 119.08,520.81 118.45,524.93 C 117.76,529.38 117.57,535.48 117.99,539.93 C 119.64,557.66 119.91,554.91 112.98,591.43 C 108.79,613.54 108.69,611.31 115.54,647.43 C 116.59,652.93 117.56,662.53 117.72,668.77 C 118,680.09 118,680.1 115.19,682.52 C 113.63,683.86 111.11,684.93 109.52,684.93 C 104.6,684.93 103.02,681.58 100.59,666.06 C 99.39,658.38 97.53,649.05 96.47,645.32 C 95.4,641.59 93.8,634.59 92.92,629.78 C 90.97,619.19 89.31,617.18 85.96,621.38 C 84.7,622.97 83.42,625.65 83.12,627.35 C 82.82,629.05 82.3,643.03 81.95,658.43 C 81.09,697.51 80.42,704.47 77.26,707.63 C 74.29,710.6 68.77,711 64.98,708.51 C 62.12,706.64 61.99,705 63.55,689.43 C 64.35,681.46 64.21,676.43 62.87,664.61 C 61.47,652.35 61.38,648.45 62.35,642.11 C 63.72,633.05 63.84,626.93 62.64,626.93 C 62.16,626.93 61.51,629.75 61.19,633.18 C 60.86,636.62 60.11,643.71 59.52,648.93 C 58.92,654.16 58.26,670.28 58.04,684.75 C 57.71,706.26 57.36,711.5 56.1,713.41 C 53.26,717.76 44.62,717.88 40.75,713.63 C 38.97,711.67 38.66,709.32 37.9,691.93 C 36.82,667.51 36.78,651.12 37.77,643.61 C 38.28,639.74 38.19,638 37.52,638.42 C 36.96,638.77 36.5,640.35 36.5,641.93 C 36.5,643.52 36.05,645.09 35.5,645.43 C 34.88,645.82 34.5,654.45 34.5,668.02 C 34.5,691.37 33.81,695.63 29.65,697.85 C 26.01,699.8 21.73,699.11 18.27,696.02 L 15,693.1 L 14.38,670.77 C 14.04,658.48 14.17,645.06 14.65,640.93 C 15.14,636.81 16.5,625.33 17.67,615.43 C 19.93,596.26 21.11,576.93 20.02,576.93 C 19.34,576.93 9.28,585.57 2.17,592.26 C -4.99,599 -13.59,601.96 -25.8,601.9 C -34.01,601.86 -37.5,599.96 -37.5,595.51 C -37.5,593.45 -36.72,592.57 -33.75,591.3 C -23.67,587.01 -21.5,585.88 -21.5,584.94 C -21.5,584.37 -16.69,579.09 -10.82,573.18 C -4.95,567.28 1.84,559.75 4.25,556.44 C 12.01,545.83 12.78,544.93 14.08,544.93 C 14.78,544.93 16.3,543.73 17.46,542.25 C 18.62,540.78 21.53,538.19 23.92,536.5 C 34.74,528.87 50.44,514.71 53.1,510.19 C 57.71,502.37 59.5,498.19 59.52,495.23 C 59.54,492.69 60.99,486.72 66.53,466.43 C 67.58,462.58 69.36,456.08 70.47,451.99 C 71.59,447.9 73.19,440.62 74.02,435.81 C 74.86,431 77.07,422.83 78.94,417.66 C 84.39,402.63 87.23,388.8 95.02,339.43 C 100.41,305.34 103.3,288.71 105.97,276.43 C 107.29,270.38 109.79,257.33 111.52,247.43 C 114.47,230.54 120.11,208.44 124.66,195.93 C 125.76,192.91 128.38,185.48 130.48,179.43 C 132.58,173.38 135.64,165.51 137.29,161.93 C 145.89,143.25 149.32,129.13 152.46,99.43 C 153.62,88.43 155.68,70.43 157.03,59.43 C 163.87,3.8 164,1.87 163.73,-36.07 C 163.34,-91.07 165.05,-111.08 173.12,-146.07 C 177.76,-166.21 182.73,-181.45 186.47,-187.06 C 193.64,-197.8 203.4,-205.28 217.58,-210.91 C 225.29,-213.96 228.69,-215.69 238.5,-221.56 C 241.52,-223.37 248.42,-226.49 253.83,-228.5 C 277.05,-237.14 331.91,-263.5 346,-272.79 C 355.65,-279.16 361.85,-285.27 364.09,-290.62 C 366.26,-295.81 368.5,-311.8 369.01,-325.66 C 369.46,-337.81 369.37,-338.52 366.64,-344.92 C 360.59,-359.05 357.3,-370.68 354.05,-389.4 C 352.38,-399 352,-400.07 350.17,-400.07 C 349.51,-400.07 347.23,-401.24 345.11,-402.68 C 340,-406.16 334.59,-417.79 331.11,-432.84 C 328.12,-445.75 327.9,-450.68 329.98,-458.64 C 331.54,-464.63 332.57,-466.4 336.32,-469.44 C 338.32,-471.06 338.54,-471.88 337.95,-475.44 C 337.58,-477.71 336.87,-480.32 336.39,-481.24 C 335.9,-482.17 335.02,-488.69 334.42,-495.74 C 333.82,-502.8 332.86,-509.56 332.27,-510.77 C 331.52,-512.34 331.53,-515.83 332.32,-522.77 C 333.04,-529.04 333.09,-532.69 332.47,-532.9 C 331.23,-533.33 331.21,-536.77 332.44,-537.53 C 332.96,-537.85 333.66,-540.24 333.99,-542.84 C 334.33,-545.44 335.03,-548.35 335.55,-549.3 C 336.07,-550.26 336.5,-552.23 336.5,-553.69 C 336.5,-555.15 337.93,-558.65 339.67,-561.46 C 341.41,-564.27 344.29,-569.11 346.06,-572.22 C 349.01,-577.4 357.68,-588.62 366.41,-598.55 C 370.67,-603.39 379.18,-609.93 382.25,-610.71 C 383.49,-611.02 384.5,-611.7 384.5,-612.22 C 384.5,-612.73 385.06,-613.05 385.75,-612.92 C 386.44,-612.79 388.41,-613.02 390.14,-613.43 C 392.56,-614.01 393.17,-614.61 392.79,-616.05 C 392.38,-617.62 393.08,-618.03 397.14,-618.64 C 399.79,-619.04 403.46,-619.99 405.28,-620.75 C 407.1,-621.51 409.04,-621.85 409.59,-621.51 C 410.14,-621.17 411.22,-621.42 411.99,-622.05 C 412.75,-622.69 415.55,-623.28 418.19,-623.37 C 420.84,-623.45 423.32,-623.98 423.71,-624.54 C 424.18,-625.21 426.1,-624.97 429.35,-623.81 C 435.13,-621.76 438.17,-621.59 438.74,-623.3 C 439.05,-624.21 439.79,-624.11 441.64,-622.9 C 443.98,-621.36 447.81,-621.34 451.5,-622.84 C 452.32,-623.17 454.35,-623.56 456,-623.69 C 457.65,-623.83 460.53,-624.25 462.39,-624.64 C 464.72,-625.12 465.57,-625 465.12,-624.25 C 464.66,-623.52 466.37,-623.18 470.37,-623.2 C 476.71,-623.23 480.56,-621.72 484.22,-617.75 C 485.44,-616.42 488.48,-614.77 490.96,-614.08 C 493.45,-613.38 496.5,-611.8 497.74,-610.57 C 498.98,-609.34 502.25,-607.18 505,-605.77 C 513.3,-601.52 520.98,-593.38 535.83,-573.07 C 537.64,-570.59 539.69,-567 540.4,-565.07 C 541.1,-563.14 542.34,-560.33 543.14,-558.83 C 545.15,-555.06 546.73,-546.21 547.21,-536.07 C 547.69,-525.87 547.72,-527.17 546.56,-508.57 C 545.39,-489.64 544,-479.23 541.82,-473.12 L 540.12,-468.31 L 542.78,-465.14 C 545.65,-461.73 549.5,-450.71 549.5,-445.9 C 549.5,-440.81 544.62,-420.93 541.24,-412.24 C 539.21,-407.01 536.73,-402.63 534.58,-400.49 C 531.16,-397.06 530.52,-396.8 525.04,-396.65 L 522.08,-396.57 L 519.23,-382.57 C 515.04,-361.96 514.79,-360.84 513.74,-357.57 C 512.8,-354.61 512.91,-341.07 514,-325.78 C 514.83,-314.04 518.06,-299.49 520.91,-294.63 C 524.48,-288.54 532.81,-281.29 542.06,-276.21 C 580.8,-254.98 617.54,-236.93 640,-228.1 C 657.83,-221.1 660.93,-219.54 673.5,-211.3 C 687.96,-201.82 699.35,-192.41 703.97,-186.11 C 712.81,-174.07 719.24,-152.83 724.57,-118.07 C 726.64,-104.61 726.82,-99.66 727.04,-49.57 C 727.27,2.1 728.25,25.17 731.43,54.18 C 737.11,105.87 740.15,127.49 743.66,140.93 C 746.13,150.39 746.56,151.56 753.58,167.93 C 759.77,182.37 772.09,218.94 775.48,232.93 C 776.62,237.61 778.9,250.66 780.57,261.93 C 782.23,273.21 785.35,293.23 787.51,306.43 C 791.43,330.49 794.59,351.48 796.55,366.43 C 798.58,382.02 800.69,394.29 802.62,401.81 C 804.85,410.47 814.98,442.47 820.23,457.43 C 822.16,462.93 825.22,472.61 827.03,478.93 C 832.9,499.49 835.18,504.52 841.92,511.72 C 845.26,515.3 854.68,524.07 862.85,531.21 C 872.01,539.21 878.72,545.92 880.35,548.69 C 883.53,554.09 890.12,562.56 896.57,569.51 C 899.16,572.3 902.23,576.45 903.4,578.73 C 906.46,584.74 910.72,589.22 916.99,593.02 C 921.86,595.97 922.5,596.73 922.5,599.62 C 922.5,604.59 919.14,606.34 910.88,605.68 C 900.72,604.86 892.05,600.06 880.75,588.98 L 871.5,579.91 L 871.5,586.06 C 871.5,592.53 871.93,595.6 876.07,618.93 C 880.28,642.66 880.46,644.58 880.48,665.72 C 880.5,689.17 879.85,692.05 873.96,694.52 C 870.66,695.89 870.03,695.87 866.67,694.23 C 861.76,691.83 860.87,688.75 859.52,669.29 C 857.85,645.18 857.21,640.95 853.88,632.06 C 852.57,628.56 851.5,624.17 851.5,622.31 C 851.5,620.45 851.05,618.93 850.5,618.93 C 849.01,618.93 849.29,625.33 851.08,632.23 C 853.08,639.96 853.4,659.29 851.75,672.14 C 851.06,677.48 850.5,687.66 850.5,694.75 C 850.5,706.96 850.37,707.78 848.11,710.22 C 844.98,713.59 839.09,714.75 835.6,712.66 C 830.79,709.8 830.51,708.11 830.84,684.43 C 831.15,662.93 830.68,652.61 828.54,634.48 C 826.81,619.73 825.36,621.55 826.12,637.51 C 826.57,646.87 826.42,652.68 825.67,654.98 C 823.98,660.23 822.53,674.87 822.19,690.32 C 821.89,703.64 821.78,704.29 819.45,706.17 C 816.23,708.78 808.86,707.98 806.16,704.72 C 804.43,702.62 804.36,700.24 804.9,660.05 C 805.45,618.77 805.25,614.93 802.53,614.93 C 802.13,614.93 801.73,618.82 801.64,623.58 C 801.55,628.33 800.74,634.97 799.84,638.33 C 798.94,641.69 798.11,646.68 798,649.43 C 797.67,657.81 796.36,670.23 795.39,674.09 C 793.84,680.27 786.27,681.18 782.16,675.68 C 779.43,672.03 778.87,660.21 780.64,643.93 C 782.38,627.92 782.39,607.98 780.65,601.19 C 779.91,598.3 779.01,596.12 778.65,596.34 C 778.29,596.56 777.91,594.54 777.79,591.84 C 777.67,589.14 777.12,585.24 776.56,583.16 C 773.05,570.13 771.57,555.74 771.78,536.78 C 771.99,518.41 771.89,517.22 769.75,513.22 C 768.51,510.91 767.5,508.33 767.5,507.51 C 767.5,506.04 760.42,489.17 745.16,454.3 C 741.04,444.88 735.2,430.71 732.18,422.8 C 729.17,414.9 721.67,396.51 715.51,381.93 C 701.54,348.85 698.9,342.01 686.96,307.93 C 677.38,280.59 674.56,273.36 668.66,260.93 C 665.22,253.68 655.53,227.15 653.51,219.43 C 652.7,216.37 652.11,207.28 651.98,195.93 C 651.79,179.37 651.49,176.44 649.12,167.93 C 643.55,147.99 637.36,121.9 634.54,106.47 C 632.11,93.2 628.5,65.6 628.5,60.3 C 628.5,59.55 628.1,58.93 627.62,58.93 C 627.13,58.93 625.98,64 625.06,70.18 C 624.14,76.37 621.88,89.53 620.04,99.43 C 610.52,150.71 609.68,179.35 616.66,213.93 C 625.92,259.82 627.31,270.54 628.54,305.43 C 629.06,320.28 629.93,334.23 630.47,336.43 C 631.01,338.63 631.46,342.33 631.48,344.65 C 631.49,347.72 632.01,349.13 633.36,349.86 C 634.39,350.41 635.71,352.11 636.3,353.65 C 637.42,356.58 640.47,371.33 641,376.43 C 641.17,378.08 641.98,381.57 642.81,384.18 C 643.63,386.8 644.07,388.93 643.78,388.93 C 643.49,388.93 643.75,389.53 644.35,390.25 C 644.95,390.98 645.42,392.89 645.38,394.5 C 645.35,396.12 645.84,399.68 646.49,402.43 C 651.14,422.34 652.53,429.95 653.49,440.93 C 654.74,455.22 656.11,466.72 658.02,478.93 C 658.75,483.61 660.12,494.62 661.08,503.4 C 662.6,517.42 662.67,521.57 661.61,537.4 C 659.84,563.87 654.83,616.55 651.95,638.93 C 650.57,649.66 648.57,671.03 647.5,686.43 C 645.23,719.27 637.24,796.27 634.99,807 C 634.14,811.09 632.6,817.13 631.57,820.43 C 625.85,838.84 623.44,876.03 625.41,915.43 C 626.53,937.69 627.43,942.76 634.84,968.43 C 639.36,984.13 646.03,1017.92 647.97,1034.93 C 650.66,1058.68 649.9,1097.8 645.99,1136.93 C 644.47,1152.1 642.83,1183.21 641.98,1212.93 C 641.7,1222.56 641.02,1236.73 640.47,1244.43 C 637.07,1291.54 636.64,1312.24 638.92,1318.72 C 639.71,1320.94 640.12,1322.98 639.84,1323.26 C 639.57,1323.53 640.11,1324.94 641.06,1326.38 C 644.6,1331.79 646.56,1341.92 647.15,1357.93 L 647.71,1373.43 L 652.32,1379.43 C 657.16,1385.73 665.48,1401.26 669.47,1411.43 C 670.76,1414.73 672.42,1418.14 673.16,1419.01 C 673.9,1419.88 674.5,1421.01 674.5,1421.52 C 674.5,1422.03 676.56,1424.92 679.08,1427.94 C 685.33,1435.43 697.32,1453.27 699.65,1458.54 C 700.7,1460.91 702.6,1464.1 703.89,1465.64 C 710,1472.96 712.48,1481.76 712.46,1495.93 C 712.44,1505.32 712.15,1507.02 709.72,1511.93 C 708.16,1515.08 705.93,1517.95 704.5,1518.64 C 701.76,1519.97 700.8,1522.83 700.62,1530.18 C 700.47,1535.99 697.68,1539.45 693.91,1538.5 C 691.64,1537.93 691.5,1538.15 691.5,1542.19 C 691.5,1548.25 689.35,1550.93 684.51,1550.93 C 681.04,1550.93 680.6,1551.22 680.32,1553.65 C 679.58,1560 666.03,1563.66 660.95,1558.89 L 658.77,1556.84 L 658.18,1559.77 C 657.03,1565.55 642,1569.76 634.5,1566.4 z"/>
    </clipPath>
  </defs>

  <!-- Background -->
  <rect x="-100" y="-80" width="1170" height="2450" fill="#FFFDF5"/>

  <!-- Title -->
  <text x="485" y="-20" text-anchor="middle" font-family="Georgia, serif" font-size="48" font-weight="bold" fill="#641220">Where Malassezia Conditions Typically Appear</text>

  <!-- Body silhouette (light fill with outline) -->
  <g transform="translate(41.5,630.92)">
    <path fill="#f0e6d6" stroke="#641220" stroke-width="3" d="M 634.5,1566.4 C 630.33,1564.53 624.15,1558.79 621.07,1553.93 C 619.85,1552.01 618.05,1547.51 617.06,1543.93 C 616.07,1540.36 614.04,1534.96 612.54,1531.93 C 609.03,1524.85 605.88,1505.39 604.53,1482.43 C 603.62,1467.04 603.19,1464.44 599.97,1454.93 C 598.01,1449.16 595.79,1441.73 595.02,1438.43 C 594.25,1435.13 593.19,1430.63 592.65,1428.43 C 592.12,1426.23 591.36,1420.16 590.97,1414.93 C 590.44,1407.71 589.42,1403.15 586.72,1395.93 C 584.77,1390.71 582.85,1383.51 582.46,1379.93 C 582.02,1375.88 580.42,1370.47 578.21,1365.57 C 573.2,1354.43 572.74,1348.57 576.06,1337.93 C 580.82,1322.7 580.48,1300.45 574.96,1265.43 C 572.17,1247.76 564.32,1204.18 561.35,1189.93 C 557.19,1169.9 555.94,1165.34 545.57,1132.28 C 536.74,1104.14 536.18,1098.25 532.64,996.43 L 531.77,971.43 L 526.53,957.94 C 523.64,950.52 519.69,941.3 517.75,937.44 C 512.22,926.46 504.86,904.37 502.58,891.89 C 501.12,883.92 500.49,876.3 500.48,866.47 C 500.47,858.75 500.03,848.38 499.51,843.43 C 498.98,838.48 498.06,826.56 497.47,816.93 C 496.87,807.31 495.52,793.36 494.47,785.93 C 492.03,768.73 481.04,715.52 473.51,684.43 C 469.93,669.68 466.81,653.76 465.4,643.11 C 464.14,633.58 462.64,625.16 462.06,624.39 C 461.19,623.24 459.79,623.77 454.2,627.39 C 448.72,630.93 446.2,631.91 441.2,632.44 C 437.53,632.83 433.86,632.66 432.21,632.03 C 430.11,631.22 429.34,631.26 429.06,632.19 C 428.86,632.88 427.51,642.43 426.05,653.43 C 424.59,664.43 421.86,680.41 419.98,688.93 C 415.26,710.32 409.73,745.28 408.53,761.18 C 407.99,768.47 406.88,778.93 406.07,784.43 C 404.54,794.81 402.46,842.03 402.45,866.43 C 402.45,888 401.15,897.51 396.1,912.93 C 393.67,920.36 389.79,930.93 387.48,936.43 C 385.17,941.93 381.98,951.05 380.39,956.69 C 376.3,971.21 376.34,974.09 381.52,1043.5 C 382.1,1051.24 382.57,1064.29 382.57,1072.5 C 382.57,1093.39 380.87,1103.25 368.5,1154.43 C 366.37,1163.23 363.88,1174.48 362.97,1179.43 C 362.06,1184.38 360.41,1192.71 359.31,1197.93 C 358.21,1203.16 356.94,1210.13 356.47,1213.43 C 356.01,1216.73 354.73,1224.38 353.61,1230.43 C 350.87,1245.33 348.5,1272.18 348.5,1288.26 C 348.5,1299.08 348.96,1303.28 351.01,1311.37 C 354.73,1326.05 355.07,1332.98 352.49,1341.43 C 344.82,1366.56 343.46,1374.08 342.51,1396.93 C 341.8,1414.02 341.36,1417.48 338.99,1424.93 C 337.5,1429.61 335.25,1435.46 334,1437.93 C 330.77,1444.33 329.3,1455.23 329.46,1471.74 C 329.53,1479.61 329.15,1487.48 328.61,1489.24 C 328.07,1491 326.45,1497.12 325.01,1502.84 C 323.56,1508.56 321.46,1515.05 320.34,1517.25 C 319.22,1519.45 317.64,1523.54 316.83,1526.34 C 316.02,1529.14 313.77,1533.79 311.81,1536.68 C 308.79,1541.14 307.5,1542.15 303.2,1543.43 C 292.66,1546.56 284.02,1544.71 279.92,1538.45 C 277.61,1534.93 278.39,1524.01 281.37,1518.18 C 283.08,1514.83 283.24,1513.93 282.11,1513.93 C 280.4,1513.93 274.16,1524.77 272.6,1530.43 C 272,1532.63 271.16,1534.93 270.75,1535.54 C 269.47,1537.43 263.75,1539.93 260.7,1539.93 C 256.56,1539.93 251.18,1536.01 250.04,1532.16 C 249.29,1529.61 248.55,1528.93 246.52,1528.93 C 243.01,1528.93 239.56,1526.32 237.94,1522.44 C 236.99,1520.16 235.73,1519.03 233.73,1518.63 C 230.36,1517.96 228.5,1514.54 228.5,1509.01 C 228.5,1506.66 227.86,1504.65 226.84,1503.81 C 223.86,1501.35 220.5,1492.23 220.5,1486.6 C 220.5,1480.25 226.01,1455.45 228.2,1451.93 C 229.06,1450.56 230.8,1448.31 232.07,1446.93 C 233.34,1445.56 236.19,1440.83 238.4,1436.43 C 240.61,1432.03 245.58,1424.61 249.44,1419.93 C 256.92,1410.86 258.88,1408.14 265.24,1397.93 C 268,1393.49 269.62,1389.48 270.33,1385.26 C 271.03,1381.12 273.51,1374.86 277.86,1366.26 C 284.91,1352.32 285.56,1349.29 284.1,1336.93 C 283.32,1330.33 283.69,1328.31 290.02,1304.97 C 292.26,1296.7 291.86,1289.1 287.56,1257.43 C 285.39,1241.48 282.66,1218.76 281.5,1206.93 C 280.34,1195.11 278.53,1177.78 277.48,1168.43 C 276.42,1159.08 275.08,1146.71 274.48,1140.93 C 273.89,1135.16 271.78,1118.96 269.81,1104.93 C 266.56,1081.88 266.2,1077.18 266.11,1055.93 C 266,1033.17 266.24,1029.78 270.58,992.43 C 271.93,980.83 273.83,969.29 277.66,949.43 C 280.66,933.82 280.72,933.04 279.87,916.93 C 279.39,907.86 279,887.16 279,870.93 C 279,838.66 279.54,842.65 272.36,821.43 C 268.82,810.99 264.65,787.78 260.45,755.17 C 259.33,746.52 257.31,732.85 255.96,724.8 C 254.61,716.75 253.5,708.63 253.5,706.77 C 253.5,704.9 252.4,697.54 251.05,690.4 C 249.71,683.27 247.68,670.68 246.55,662.43 C 245.42,654.18 243.81,642.93 242.98,637.43 C 236.87,596.85 228.38,512.53 229.93,507.77 C 230.17,507.03 230.61,491.58 230.92,473.43 C 231.87,415.97 235.08,386.44 242.59,365.85 C 248.75,348.97 250.71,332.81 251,296.43 C 251.2,272.13 251.34,271.15 259.64,233.93 C 265.59,207.26 266.89,193.61 266.96,156.93 C 267,131.35 265.77,113.99 262.41,92.93 C 259.2,72.86 258.64,72.58 256.08,89.71 C 254.55,99.92 245.66,136.73 238.87,160.93 C 236.47,169.48 236.18,172.28 236.01,188.93 C 235.9,199.11 235.31,209.46 234.7,211.93 C 233.11,218.33 223.71,245.67 221.47,250.43 C 218.2,257.36 211.82,273.1 208.69,281.93 C 194.8,321.17 181.76,354.09 171.27,376.43 C 157.42,405.91 150.85,422.36 137.55,460.93 C 129.04,485.61 122.87,503.07 121.48,506.43 C 121.02,507.53 120.41,510.46 120.13,512.93 C 119.84,515.41 119.08,520.81 118.45,524.93 C 117.76,529.38 117.57,535.48 117.99,539.93 C 119.64,557.66 119.91,554.91 112.98,591.43 C 108.79,613.54 108.69,611.31 115.54,647.43 C 116.59,652.93 117.56,662.53 117.72,668.77 C 118,680.09 118,680.1 115.19,682.52 C 113.63,683.86 111.11,684.93 109.52,684.93 C 104.6,684.93 103.02,681.58 100.59,666.06 C 99.39,658.38 97.53,649.05 96.47,645.32 C 95.4,641.59 93.8,634.59 92.92,629.78 C 90.97,619.19 89.31,617.18 85.96,621.38 C 84.7,622.97 83.42,625.65 83.12,627.35 C 82.82,629.05 82.3,643.03 81.95,658.43 C 81.09,697.51 80.42,704.47 77.26,707.63 C 74.29,710.6 68.77,711 64.98,708.51 C 62.12,706.64 61.99,705 63.55,689.43 C 64.35,681.46 64.21,676.43 62.87,664.61 C 61.47,652.35 61.38,648.45 62.35,642.11 C 63.72,633.05 63.84,626.93 62.64,626.93 C 62.16,626.93 61.51,629.75 61.19,633.18 C 60.86,636.62 60.11,643.71 59.52,648.93 C 58.92,654.16 58.26,670.28 58.04,684.75 C 57.71,706.26 57.36,711.5 56.1,713.41 C 53.26,717.76 44.62,717.88 40.75,713.63 C 38.97,711.67 38.66,709.32 37.9,691.93 C 36.82,667.51 36.78,651.12 37.77,643.61 C 38.28,639.74 38.19,638 37.52,638.42 C 36.96,638.77 36.5,640.35 36.5,641.93 C 36.5,643.52 36.05,645.09 35.5,645.43 C 34.88,645.82 34.5,654.45 34.5,668.02 C 34.5,691.37 33.81,695.63 29.65,697.85 C 26.01,699.8 21.73,699.11 18.27,696.02 L 15,693.1 L 14.38,670.77 C 14.04,658.48 14.17,645.06 14.65,640.93 C 15.14,636.81 16.5,625.33 17.67,615.43 C 19.93,596.26 21.11,576.93 20.02,576.93 C 19.34,576.93 9.28,585.57 2.17,592.26 C -4.99,599 -13.59,601.96 -25.8,601.9 C -34.01,601.86 -37.5,599.96 -37.5,595.51 C -37.5,593.45 -36.72,592.57 -33.75,591.3 C -23.67,587.01 -21.5,585.88 -21.5,584.94 C -21.5,584.37 -16.69,579.09 -10.82,573.18 C -4.95,567.28 1.84,559.75 4.25,556.44 C 12.01,545.83 12.78,544.93 14.08,544.93 C 14.78,544.93 16.3,543.73 17.46,542.25 C 18.62,540.78 21.53,538.19 23.92,536.5 C 34.74,528.87 50.44,514.71 53.1,510.19 C 57.71,502.37 59.5,498.19 59.52,495.23 C 59.54,492.69 60.99,486.72 66.53,466.43 C 67.58,462.58 69.36,456.08 70.47,451.99 C 71.59,447.9 73.19,440.62 74.02,435.81 C 74.86,431 77.07,422.83 78.94,417.66 C 84.39,402.63 87.23,388.8 95.02,339.43 C 100.41,305.34 103.3,288.71 105.97,276.43 C 107.29,270.38 109.79,257.33 111.52,247.43 C 114.47,230.54 120.11,208.44 124.66,195.93 C 125.76,192.91 128.38,185.48 130.48,179.43 C 132.58,173.38 135.64,165.51 137.29,161.93 C 145.89,143.25 149.32,129.13 152.46,99.43 C 153.62,88.43 155.68,70.43 157.03,59.43 C 163.87,3.8 164,1.87 163.73,-36.07 C 163.34,-91.07 165.05,-111.08 173.12,-146.07 C 177.76,-166.21 182.73,-181.45 186.47,-187.06 C 193.64,-197.8 203.4,-205.28 217.58,-210.91 C 225.29,-213.96 228.69,-215.69 238.5,-221.56 C 241.52,-223.37 248.42,-226.49 253.83,-228.5 C 277.05,-237.14 331.91,-263.5 346,-272.79 C 355.65,-279.16 361.85,-285.27 364.09,-290.62 C 366.26,-295.81 368.5,-311.8 369.01,-325.66 C 369.46,-337.81 369.37,-338.52 366.64,-344.92 C 360.59,-359.05 357.3,-370.68 354.05,-389.4 C 352.38,-399 352,-400.07 350.17,-400.07 C 349.51,-400.07 347.23,-401.24 345.11,-402.68 C 340,-406.16 334.59,-417.79 331.11,-432.84 C 328.12,-445.75 327.9,-450.68 329.98,-458.64 C 331.54,-464.63 332.57,-466.4 336.32,-469.44 C 338.32,-471.06 338.54,-471.88 337.95,-475.44 C 337.58,-477.71 336.87,-480.32 336.39,-481.24 C 335.9,-482.17 335.02,-488.69 334.42,-495.74 C 333.82,-502.8 332.86,-509.56 332.27,-510.77 C 331.52,-512.34 331.53,-515.83 332.32,-522.77 C 333.04,-529.04 333.09,-532.69 332.47,-532.9 C 331.23,-533.33 331.21,-536.77 332.44,-537.53 C 332.96,-537.85 333.66,-540.24 333.99,-542.84 C 334.33,-545.44 335.03,-548.35 335.55,-549.3 C 336.07,-550.26 336.5,-552.23 336.5,-553.69 C 336.5,-555.15 337.93,-558.65 339.67,-561.46 C 341.41,-564.27 344.29,-569.11 346.06,-572.22 C 349.01,-577.4 357.68,-588.62 366.41,-598.55 C 370.67,-603.39 379.18,-609.93 382.25,-610.71 C 383.49,-611.02 384.5,-611.7 384.5,-612.22 C 384.5,-612.73 385.06,-613.05 385.75,-612.92 C 386.44,-612.79 388.41,-613.02 390.14,-613.43 C 392.56,-614.01 393.17,-614.61 392.79,-616.05 C 392.38,-617.62 393.08,-618.03 397.14,-618.64 C 399.79,-619.04 403.46,-619.99 405.28,-620.75 C 407.1,-621.51 409.04,-621.85 409.59,-621.51 C 410.14,-621.17 411.22,-621.42 411.99,-622.05 C 412.75,-622.69 415.55,-623.28 418.19,-623.37 C 420.84,-623.45 423.32,-623.98 423.71,-624.54 C 424.18,-625.21 426.1,-624.97 429.35,-623.81 C 435.13,-621.76 438.17,-621.59 438.74,-623.3 C 439.05,-624.21 439.79,-624.11 441.64,-622.9 C 443.98,-621.36 447.81,-621.34 451.5,-622.84 C 452.32,-623.17 454.35,-623.56 456,-623.69 C 457.65,-623.83 460.53,-624.25 462.39,-624.64 C 464.72,-625.12 465.57,-625 465.12,-624.25 C 464.66,-623.52 466.37,-623.18 470.37,-623.2 C 476.71,-623.23 480.56,-621.72 484.22,-617.75 C 485.44,-616.42 488.48,-614.77 490.96,-614.08 C 493.45,-613.38 496.5,-611.8 497.74,-610.57 C 498.98,-609.34 502.25,-607.18 505,-605.77 C 513.3,-601.52 520.98,-593.38 535.83,-573.07 C 537.64,-570.59 539.69,-567 540.4,-565.07 C 541.1,-563.14 542.34,-560.33 543.14,-558.83 C 545.15,-555.06 546.73,-546.21 547.21,-536.07 C 547.69,-525.87 547.72,-527.17 546.56,-508.57 C 545.39,-489.64 544,-479.23 541.82,-473.12 L 540.12,-468.31 L 542.78,-465.14 C 545.65,-461.73 549.5,-450.71 549.5,-445.9 C 549.5,-440.81 544.62,-420.93 541.24,-412.24 C 539.21,-407.01 536.73,-402.63 534.58,-400.49 C 531.16,-397.06 530.52,-396.8 525.04,-396.65 L 522.08,-396.57 L 519.23,-382.57 C 515.04,-361.96 514.79,-360.84 513.74,-357.57 C 512.8,-354.61 512.91,-341.07 514,-325.78 C 514.83,-314.04 518.06,-299.49 520.91,-294.63 C 524.48,-288.54 532.81,-281.29 542.06,-276.21 C 580.8,-254.98 617.54,-236.93 640,-228.1 C 657.83,-221.1 660.93,-219.54 673.5,-211.3 C 687.96,-201.82 699.35,-192.41 703.97,-186.11 C 712.81,-174.07 719.24,-152.83 724.57,-118.07 C 726.64,-104.61 726.82,-99.66 727.04,-49.57 C 727.27,2.1 728.25,25.17 731.43,54.18 C 737.11,105.87 740.15,127.49 743.66,140.93 C 746.13,150.39 746.56,151.56 753.58,167.93 C 759.77,182.37 772.09,218.94 775.48,232.93 C 776.62,237.61 778.9,250.66 780.57,261.93 C 782.23,273.21 785.35,293.23 787.51,306.43 C 791.43,330.49 794.59,351.48 796.55,366.43 C 798.58,382.02 800.69,394.29 802.62,401.81 C 804.85,410.47 814.98,442.47 820.23,457.43 C 822.16,462.93 825.22,472.61 827.03,478.93 C 832.9,499.49 835.18,504.52 841.92,511.72 C 845.26,515.3 854.68,524.07 862.85,531.21 C 872.01,539.21 878.72,545.92 880.35,548.69 C 883.53,554.09 890.12,562.56 896.57,569.51 C 899.16,572.3 902.23,576.45 903.4,578.73 C 906.46,584.74 910.72,589.22 916.99,593.02 C 921.86,595.97 922.5,596.73 922.5,599.62 C 922.5,604.59 919.14,606.34 910.88,605.68 C 900.72,604.86 892.05,600.06 880.75,588.98 L 871.5,579.91 L 871.5,586.06 C 871.5,592.53 871.93,595.6 876.07,618.93 C 880.28,642.66 880.46,644.58 880.48,665.72 C 880.5,689.17 879.85,692.05 873.96,694.52 C 870.66,695.89 870.03,695.87 866.67,694.23 C 861.76,691.83 860.87,688.75 859.52,669.29 C 857.85,645.18 857.21,640.95 853.88,632.06 C 852.57,628.56 851.5,624.17 851.5,622.31 C 851.5,620.45 851.05,618.93 850.5,618.93 C 849.01,618.93 849.29,625.33 851.08,632.23 C 853.08,639.96 853.4,659.29 851.75,672.14 C 851.06,677.48 850.5,687.66 850.5,694.75 C 850.5,706.96 850.37,707.78 848.11,710.22 C 844.98,713.59 839.09,714.75 835.6,712.66 C 830.79,709.8 830.51,708.11 830.84,684.43 C 831.15,662.93 830.68,652.61 828.54,634.48 C 826.81,619.73 825.36,621.55 826.12,637.51 C 826.57,646.87 826.42,652.68 825.67,654.98 C 823.98,660.23 822.53,674.87 822.19,690.32 C 821.89,703.64 821.78,704.29 819.45,706.17 C 816.23,708.78 808.86,707.98 806.16,704.72 C 804.43,702.62 804.36,700.24 804.9,660.05 C 805.45,618.77 805.25,614.93 802.53,614.93 C 802.13,614.93 801.73,618.82 801.64,623.58 C 801.55,628.33 800.74,634.97 799.84,638.33 C 798.94,641.69 798.11,646.68 798,649.43 C 797.67,657.81 796.36,670.23 795.39,674.09 C 793.84,680.27 786.27,681.18 782.16,675.68 C 779.43,672.03 778.87,660.21 780.64,643.93 C 782.38,627.92 782.39,607.98 780.65,601.19 C 779.91,598.3 779.01,596.12 778.65,596.34 C 778.29,596.56 777.91,594.54 777.79,591.84 C 777.67,589.14 777.12,585.24 776.56,583.16 C 773.05,570.13 771.57,555.74 771.78,536.78 C 771.99,518.41 771.89,517.22 769.75,513.22 C 768.51,510.91 767.5,508.33 767.5,507.51 C 767.5,506.04 760.42,489.17 745.16,454.3 C 741.04,444.88 735.2,430.71 732.18,422.8 C 729.17,414.9 721.67,396.51 715.51,381.93 C 701.54,348.85 698.9,342.01 686.96,307.93 C 677.38,280.59 674.56,273.36 668.66,260.93 C 665.22,253.68 655.53,227.15 653.51,219.43 C 652.7,216.37 652.11,207.28 651.98,195.93 C 651.79,179.37 651.49,176.44 649.12,167.93 C 643.55,147.99 637.36,121.9 634.54,106.47 C 632.11,93.2 628.5,65.6 628.5,60.3 C 628.5,59.55 628.1,58.93 627.62,58.93 C 627.13,58.93 625.98,64 625.06,70.18 C 624.14,76.37 621.88,89.53 620.04,99.43 C 610.52,150.71 609.68,179.35 616.66,213.93 C 625.92,259.82 627.31,270.54 628.54,305.43 C 629.06,320.28 629.93,334.23 630.47,336.43 C 631.01,338.63 631.46,342.33 631.48,344.65 C 631.49,347.72 632.01,349.13 633.36,349.86 C 634.39,350.41 635.71,352.11 636.3,353.65 C 637.42,356.58 640.47,371.33 641,376.43 C 641.17,378.08 641.98,381.57 642.81,384.18 C 643.63,386.8 644.07,388.93 643.78,388.93 C 643.49,388.93 643.75,389.53 644.35,390.25 C 644.95,390.98 645.42,392.89 645.38,394.5 C 645.35,396.12 645.84,399.68 646.49,402.43 C 651.14,422.34 652.53,429.95 653.49,440.93 C 654.74,455.22 656.11,466.72 658.02,478.93 C 658.75,483.61 660.12,494.62 661.08,503.4 C 662.6,517.42 662.67,521.57 661.61,537.4 C 659.84,563.87 654.83,616.55 651.95,638.93 C 650.57,649.66 648.57,671.03 647.5,686.43 C 645.23,719.27 637.24,796.27 634.99,807 C 634.14,811.09 632.6,817.13 631.57,820.43 C 625.85,838.84 623.44,876.03 625.41,915.43 C 626.53,937.69 627.43,942.76 634.84,968.43 C 639.36,984.13 646.03,1017.92 647.97,1034.93 C 650.66,1058.68 649.9,1097.8 645.99,1136.93 C 644.47,1152.1 642.83,1183.21 641.98,1212.93 C 641.7,1222.56 641.02,1236.73 640.47,1244.43 C 637.07,1291.54 636.64,1312.24 638.92,1318.72 C 639.71,1320.94 640.12,1322.98 639.84,1323.26 C 639.57,1323.53 640.11,1324.94 641.06,1326.38 C 644.6,1331.79 646.56,1341.92 647.15,1357.93 L 647.71,1373.43 L 652.32,1379.43 C 657.16,1385.73 665.48,1401.26 669.47,1411.43 C 670.76,1414.73 672.42,1418.14 673.16,1419.01 C 673.9,1419.88 674.5,1421.01 674.5,1421.52 C 674.5,1422.03 676.56,1424.92 679.08,1427.94 C 685.33,1435.43 697.32,1453.27 699.65,1458.54 C 700.7,1460.91 702.6,1464.1 703.89,1465.64 C 710,1472.96 712.48,1481.76 712.46,1495.93 C 712.44,1505.32 712.15,1507.02 709.72,1511.93 C 708.16,1515.08 705.93,1517.95 704.5,1518.64 C 701.76,1519.97 700.8,1522.83 700.62,1530.18 C 700.47,1535.99 697.68,1539.45 693.91,1538.5 C 691.64,1537.93 691.5,1538.15 691.5,1542.19 C 691.5,1548.25 689.35,1550.93 684.51,1550.93 C 681.04,1550.93 680.6,1551.22 680.32,1553.65 C 679.58,1560 666.03,1563.66 660.95,1558.89 L 658.77,1556.84 L 658.18,1559.77 C 657.03,1565.55 642,1569.76 634.5,1566.4 z"/>
  </g>

  <!-- Condition zones clipped to body shape -->
  <g clip-path="url(#bodyClip)">
    <!-- Seb Derm: Scalp, brows, nose, ears, chest - Burgundy -->
    <ellipse cx="490" cy="260" rx="90" ry="80" fill="#641220" opacity="0.3"/>
    <ellipse cx="490" cy="350" rx="30" ry="50" fill="#641220" opacity="0.25"/>
    <ellipse cx="490" cy="830" rx="100" ry="55" fill="#641220" opacity="0.2"/>

    <!-- Folliculitis: Forehead, hairline, upper chest, back - Burnt Red -->
    <ellipse cx="490" cy="230" rx="70" ry="40" fill="#C54427" opacity="0.3"/>
    <rect x="370" y="860" width="240" height="100" rx="20" fill="#C54427" opacity="0.2"/>

    <!-- Tinea Versicolor: Trunk, upper arms - Gold -->
    <rect x="350" y="940" width="280" height="200" rx="25" fill="#F8B044" opacity="0.25"/>
    <rect x="210" y="870" width="70" height="130" rx="20" fill="#F8B044" opacity="0.25"/>
    <rect x="680" y="870" width="70" height="130" rx="20" fill="#F8B044" opacity="0.25"/>

    <!-- HND in AD: Face, neck - Teal -->
    <ellipse cx="490" cy="340" rx="65" ry="75" fill="#055A5B" opacity="0.2"/>
    <rect x="455" y="400" width="70" height="65" rx="10" fill="#055A5B" opacity="0.25"/>
  </g>

  <!-- Labels - Left side -->
  <g font-family="Georgia, serif" fill="#641220">
    <text x="-60" y="270" font-size="28" font-weight="bold">Seb Derm /</text>
    <text x="-60" y="302" font-size="28" font-weight="bold">Dandruff</text>
    <text x="-60" y="340" font-size="22" font-style="italic" opacity="0.7">Scalp, brows, nose,</text>
    <text x="-60" y="366" font-size="22" font-style="italic" opacity="0.7">ears, chest</text>
    <line x1="180" y1="300" x2="400" y2="300" stroke="#641220" stroke-width="1.5" stroke-dasharray="6,4" opacity="0.4"/>
  </g>

  <g font-family="Georgia, serif" fill="#F8B044">
    <text x="-60" y="1010" font-size="28" font-weight="bold">Tinea</text>
    <text x="-60" y="1042" font-size="28" font-weight="bold">Versicolor</text>
    <text x="-60" y="1080" font-size="22" font-style="italic" opacity="0.8">Trunk, upper arms</text>
    <line x1="180" y1="1030" x2="350" y2="1030" stroke="#F8B044" stroke-width="1.5" stroke-dasharray="6,4" opacity="0.5"/>
  </g>

  <!-- Labels - Right side -->
  <g font-family="Georgia, serif" fill="#C54427">
    <text x="790" y="240" font-size="28" font-weight="bold">Malassezia</text>
    <text x="790" y="272" font-size="28" font-weight="bold">Folliculitis</text>
    <text x="790" y="310" font-size="22" font-style="italic" opacity="0.8">Forehead, hairline,</text>
    <text x="790" y="336" font-size="22" font-style="italic" opacity="0.8">upper chest, back</text>
    <line x1="560" y1="260" x2="780" y2="260" stroke="#C54427" stroke-width="1.5" stroke-dasharray="6,4" opacity="0.4"/>
  </g>

  <g font-family="Georgia, serif" fill="#055A5B">
    <text x="790" y="400" font-size="28" font-weight="bold">Head &amp; Neck</text>
    <text x="790" y="432" font-size="28" font-weight="bold">Dermatitis in AD</text>
    <text x="790" y="470" font-size="22" font-style="italic" opacity="0.8">Face, neck</text>
    <line x1="560" y1="410" x2="780" y2="410" stroke="#055A5B" stroke-width="1.5" stroke-dasharray="6,4" opacity="0.4"/>
  </g>

  <!-- Legend -->
  <g transform="translate(140, 2220)">
    <text font-family="Georgia, serif" font-size="24" font-weight="bold" fill="#641220" letter-spacing="3">CONDITION KEY</text>

    <rect x="0" y="35" width="22" height="22" rx="4" fill="#641220" opacity="0.5" stroke="#641220" stroke-width="2"/>
    <text x="35" y="54" font-family="Georgia, serif" font-size="22" fill="#3D2025">Seborrheic Dermatitis / Dandruff</text>

    <rect x="0" y="72" width="22" height="22" rx="4" fill="#C54427" opacity="0.5" stroke="#C54427" stroke-width="2"/>
    <text x="35" y="91" font-family="Georgia, serif" font-size="22" fill="#3D2025">Malassezia Folliculitis ("Fungal Acne")</text>

    <rect x="0" y="109" width="22" height="22" rx="4" fill="#F8B044" opacity="0.5" stroke="#F8B044" stroke-width="2"/>
    <text x="35" y="128" font-family="Georgia, serif" font-size="22" fill="#3D2025">Tinea Versicolor</text>

    <rect x="0" y="146" width="22" height="22" rx="4" fill="#055A5B" opacity="0.5" stroke="#055A5B" stroke-width="2"/>
    <text x="35" y="165" font-family="Georgia, serif" font-size="22" fill="#3D2025">Head-and-Neck Dermatitis in AD</text>
  </g>
</svg>
