<?xml version="1.0" encoding="UTF-8"?>
<svg id="Layer_2" data-name="Layer 2" xmlns="http://www.w3.org/2000/svg" viewBox="0 0 337.6 317.11">
  <g id="Layer_1-2" data-name="Layer 1">
    <path d="M318.93,275.63c-8.95,3.92-20.96,7.43-35.71,10.51-14.75,2.75-32.56,4.34-53.2,4.34s-20.22-.42-27.92-1.17c.79-1.08,1.64-2.14,2.34-3.28,4.88-7.9,7.35-16.82,7.35-26.09,0-8.6-2.32-21.53-7.37-29.71,10.44-1.92,22.54-3.92,36.46-5.51,22.54-3.09,40.35-7.01,53.94-11.77,13.59-4.76,23.28-11.35,29.5-19.53,6.21-8.18,9.28-18.36,9.28-30.88s-3.07-20.36-9.69-28.54c-6.63-8.6-16.32-15.27-29.08-19.94-13.17-5.09-50.05-7.43-50.05-7.43,20.89-17.48,36.9-38.95,52.14-61.26,8.09-11.84,16.23-23.67,24.12-35.65.85-1.29,1.67-2.62,2.53-3.9,1.54-2.29,3.02-4.32,4.31-5.84h-46.41s-3.44,8.63-3.74,9.39c-8.45,20.84-20.89,40.27-34.13,58.36-8.6,11.76-18.33,22.95-30.5,31.15-22.25,14.98-50.43,17.04-75.13,6.95-12.48-5.1-23.77-13.13-32.49-23.42-15.61-18.41-30.21-41.49-39.93-63.63-1.42-3.24-2.85-6.04-4.31-9.26-1.19-2.62-2.32-5.75-3.3-8.45-.02-.06-.43-1.09-.34-1.09H9.95c1.67,2.18,2.94,4.23,4.25,5.95,10.01,16.13,21.21,31.61,31.97,47.25,13.65,19.82,27.47,38.87,46.93,53.45-20.22,0-36.92,2.34-50.09,7.43-13.17,5.09-22.87,11.35-29.08,19.94-6.63,8.18-9.69,17.94-9.69,28.54s3.07,22.7,9.28,30.88c6.21,8.18,15.91,14.85,29.5,19.53,15.88,5.46,32.12,8.86,48.76,11.1,13.92,1.87,28.11,3.75,41.82,6.05-1.51,2.31-2.35,5.29-3.34,7.84-3.5,9.05-4.6,19.21-3.45,28.83.48,4.01,1.41,7.97,2.9,11.72s3.94,7.19,6.03,10.81c-7.79.75-17.07,1.17-27.92,1.17-20.55,0-38.45-1.59-53.2-4.34-14.75-2.75-26.76-6.26-35.71-10.51-8.95-3.92-16.42-9.88-18.9-12.48l.14,36.75v6.68c8.12,2.34,29.7,5.02,48.26,7.02,18.97,2.34,40.77,3.51,65.21,3.51,12.82,0,25.66-.28,38.31-2.9,1.15-.24,2.29-.48,3.43-.74,2.34-.52,4.68-1.06,7-1.65,1.06-.27,2.11-.6,3.15-.95.61-.21,3.21-1.19,3.21-1.19,0,0,8.12,2.34,12.43,3.51,12.43,2.75,26.35,3.92,42.67,3.92,24.44,0,46.15-1.17,65.21-3.51,19.06-2.34,40.46-4.67,48.58-6.68v-6.68l-.23-37c-3.07,3.51-9.9,8.05-18.85,12.39h.41ZM168.29,275.22c-3.48-4.67-5.47-10.18-5.47-16.02s1.91-10.51,5.47-14.44c3.48,3.92,5.47,8.6,5.47,14.44s-1.91,11.35-5.47,16.02ZM155.17,149.82c-.01-5.43-.01-10.86.03-16.3h27.38s-.06,1.84-.06,5.25v9.06c0,8.6-.13,17.08-.13,25.67v28.79c-5.05,1.17-9.28,2.34-13.59,3.92-4.31-1.17-8.53-2.75-13.59-3.92,0-12.47,0-24.9,0-37.37,0-5.03-.02-10.06-.03-15.09ZM274.29,136.7c8.12,1.92,12.82,4.91,16.3,8.84,3.48,3.92,5.47,9.01,5.47,14.44s-2.73,13.69-8.12,17.94c-5.47,4.67-13.59,8.18-24.44,10.51-10.85,2.34-23.7,4.67-39.19,6.68h-3.89v-61.75h19.39c14,0,25.19,1.17,33.39,3.09l1.1.26ZM74.41,188.51c-10.85-2.34-18.97-5.84-24.44-10.51-5.47-4.67-8.12-10.51-8.12-17.94s1.91-10.51,5.47-14.44c3.56-3.92,9.28-7.01,17.48-9.01,8.2-2,19.39-3.09,33.39-3.09h19.39v61.59h-3.9c-15.49-1.92-28.34-3.76-39.19-6.51l-.08-.08Z"/>
  </g>
</svg>