<?xml version="1.0" encoding="UTF-8"?>
<svg id="Layer_2" data-name="Layer 2" xmlns="http://www.w3.org/2000/svg" viewBox="0 0 373.4 604">
  <g id="Layer_2-2" data-name="Layer 2">
    <g>
      <path d="M115.7,470.9l-.7-1.2c-.5-.8-1-1.7-1.6-2.7l-1.1-1.8c-8.3-13.9-16.9-28.3-31.1-38.4-5.1-3.5-9.7-6.2-13.8-7.9-1-.4-2-.8-3-1.2,2.9-1.5,6.1-3.8,9.7-6.8,2.9-2.5,5.4-5,7.6-7.3,2.3-2.5,4.8-5.5,7.2-8.9,1.9-2.7,6.8-10.3,10.8-16.7,2.56-4.14,5.35-8.12,8-12.2h-32.8l-1.1,4.6c-.1.8-.4,1.6-.7,2.7-1.6,6-8.9,18.2-12.9,22.9-4.1,4.7-8.8,8.5-13.9,11.1-5,2.6-10,3.9-14.8,3.9h-1.7c-2,0-3.2,0-3.8-.2,0-.4-.1-1-.1-1.9v-36l-.1-7.1H0v112.7h25.8v-44.7c0-1.1,0-1.9.1-2.4.7,0,1.9-.2,3.8-.2h1.9c6.9,0,13.2,1,18.8,3,5.6,2,10.7,4.7,15,8.1,4.4,3.4,8,7.1,11,11.2,2.9,4,9.8,17.5,11.2,21.5.1.4.2.6.3.9l.9,2.5h32.2l-3.6-5c-.5-.7-1.1-1.6-1.7-2.5Z"/>
      <path d="M116.2,218l-.7-1.2c-.5-.8-1-1.7-1.6-2.7l-1.1-1.8c-8.3-13.9-16.9-28.3-31.1-38.4-5.1-3.5-9.7-6.2-13.8-7.9-1-.4-2-.8-3-1.2,2.9-1.5,6.1-3.8,9.7-6.8,2.9-2.5,5.4-5,7.6-7.3,2.3-2.5,4.8-5.5,7.2-8.9,3.87-5.5,7.43-11.26,10.97-16.98,2.5-4.04,5.24-7.94,7.83-11.92h-32.8l-1.1,4.6c-.1.8-.4,1.6-.7,2.7-1.6,6-8.9,18.2-12.9,22.9-4.1,4.7-8.8,8.5-13.9,11.1-5,2.6-10,3.9-14.8,3.9h-1.7c-2,0-3.2,0-3.8-.2,0-.4-.1-1-.1-1.9v-36l-.1-7.1H.5v112.7h25.8v-44.7c0-1.1,0-1.9.1-2.4.7,0,1.9-.2,3.8-.2h1.9c6.9,0,13.2,1,18.8,3,5.6,2,10.7,4.7,15,8.1,4.4,3.4,8,7.1,11,11.2,2.9,4,9.8,17.5,11.2,21.5.1.4.2.6.3.9l.9,2.5h32.2l-3.6-5c-.5-.7-1.1-1.6-1.7-2.5Z"/>
      <path d="M223.2.1h-5.8c-3.4,14.9-12.9,28.5-25.7,36.6-1.3.8-2.7,1.6-4.3,1.6-1.5,0-2.9-.8-4.2-1.7-13-8.3-22.9-21.7-27.3-36.6h-32c6.5,10.7,13.1,21.4,21.1,31s18.5,18,29.7,23.6v58.1h24.5v-57.9c12-4.2,22-12.7,30-22.5S243.3,11.2,249.4.1h-26.2Z"/>
      <path d="M223.3,491.4h-5.9c-3.4,14.9-12.9,28.5-25.7,36.6-1.3.8-2.7,1.6-4.3,1.6-1.5,0-2.9-.8-4.2-1.7-13-8.3-22.9-21.7-27.3-36.6h-32c6.5,10.7,13.1,21.4,21.1,31s18.5,18,29.7,23.6v58.1h24.5v-57.9c12-4.2,22-12.7,30-22.5s14.1-21.1,20.2-32.2h-26.1Z"/>
      <path d="M208.1,333.2c-4.7,1.3-11.7,1.9-20.8,1.9s-19.3-.7-26.7-2.1c-7.3-1.4-13.3-3.1-17.6-5.1-3.6-1.6-6.8-3.4-9.3-6.4-1.6-1.9-3.2-3.7-4.8-5.6v33.7l3.4.5c5.9.9,13.9,2.3,23.1,3.4h1.2c9.7,1.3,21.1,1.9,33.7,1.9h.3c8.5,0,16.2-.7,22.7-2.1,6.6-1.4,12.3-3.5,16.9-6.3,4.7-2.9,8.3-6.4,10.7-10.6,2.4-4.1,3.6-8.8,3.6-13.9,0-7.6-1.9-13.8-5.5-18.7-2.03-2.76-4.7-4.78-7.61-6.46-1.95-1.12-4.01-2.09-6.05-3.02-5.22-2.38-10.77-3.94-16.39-5.06-11.34-2.26-22.94-2.8-34.25-5.25-2.36-.51-4.69-1.13-7.01-1.81-3.1-.9-6.2-2.2-8.5-4.4-5.5-5.4-2.1-11.9,4.2-14.3,6.7-2.5,13.9-2.5,20.9-2.4,7,.1,14.2.5,21.2,1.6,6.9,1.1,12.8,2.4,17.7,4,4.7,1.5,13.3,6.1,15.5,7.5l.3.2v-28.9c-5.4-.4-10.7-1.2-16-1.8-3.8-.5-7.6-.7-11.4-1.2-9-1.2-19.8-1.8-31.9-1.8s-19.8,1.3-26.8,4c-7.3,2.7-12.8,6.5-16.5,11.3s-5.6,10.4-5.6,16.6,1.8,13.1,5.3,17.8c3.5,4.7,9.1,8.4,16.6,11.1,7.2,2.6,16.7,4.6,28.4,6.2,10,1.2,21.1,2.2,30.5,6.2,2.8,1.2,5.5,3.2,6.5,6.1.6,1.8.5,3.7,0,5.5-1.5,4.6-5.7,6.5-10,7.7Z"/>
      <path d="M349.5,112.9v3.8l.1-.1v71.8c-3-4-6.1-8.2-9.4-12.5-4.7-6.2-9.3-12.4-13.8-18.5-4.3-5.8-8.6-11.5-12.7-17-3.9-5.1-7.2-9.6-9.7-13.1-2.6-3.6-4.3-5.9-5.1-7.1-1.7-2.5-3.1-4.6-4.1-6.2l-.7-1.2h-29v112.8h23.7v-85.1c2.9,4,5.9,8.2,9,12.6,4.5,6.4,9.2,12.9,13.8,19.4,4.6,6.4,9.1,12.6,13.2,18.4,4,5.7,7.8,10.9,11.2,15.6,3.3,4.5,5.8,8,7.5,10.6,2.2,3,3.8,5.5,4.9,7.4l.7,1.2h24.3v-112.8h-23.9Z"/>
      <path d="M348.7,369.2l.1-.1h0v71.8c-3-4-6.1-8.2-9.4-12.5-4.7-6.2-9.3-12.4-13.8-18.5-4.3-5.8-8.6-11.5-12.7-17-3.9-5.1-7.2-9.6-9.7-13.1-2.6-3.6-4.3-5.9-5.1-7.1-1.7-2.5-3.1-4.6-4.1-6.2l-.7-1.2h-29v112.8h23.7v-85.1c2.9,4,5.9,8.2,9,12.6,4.5,6.4,9.2,12.9,13.8,19.4,4.6,6.4,9.1,12.6,13.2,18.4,4,5.7,7.8,10.9,11.2,15.6,3.3,4.5,5.8,8,7.5,10.6,2.2,3,3.8,5.5,4.9,7.4l.7,1.2h24.3v-112.8h-23.9v3.8Z"/>
    </g>
  </g>
</svg>